<svg style="position: absolute; width: 0; height: 0; overflow: hidden;" version="1.1" xmlns="http://www.w3.org/2000/svg" xmlns:xlink="http://www.w3.org/1999/xlink">
<defs>
<symbol id="icon-sphere" viewBox="0 0 32 32">
<title>sphere</title>
<path class="path1" d="M15 2c-8.284 0-15 6.716-15 15s6.716 15 15 15c8.284 0 15-6.716 15-15s-6.716-15-15-15zM23.487 22c0.268-1.264 0.437-2.606 0.492-4h3.983c-0.104 1.381-0.426 2.722-0.959 4h-3.516zM6.513 12c-0.268 1.264-0.437 2.606-0.492 4h-3.983c0.104-1.381 0.426-2.722 0.959-4h3.516zM21.439 12c0.3 1.28 0.481 2.62 0.54 4h-5.979v-4h5.439zM16 10v-5.854c0.456 0.133 0.908 0.355 1.351 0.668 0.831 0.586 1.625 1.488 2.298 2.609 0.465 0.775 0.867 1.638 1.203 2.578h-4.852zM10.351 7.422c0.673-1.121 1.467-2.023 2.298-2.609 0.443-0.313 0.895-0.535 1.351-0.668v5.854h-4.852c0.336-0.94 0.738-1.803 1.203-2.578zM14 12v4h-5.979c0.059-1.38 0.24-2.72 0.54-4h5.439zM2.997 22c-0.533-1.278-0.854-2.619-0.959-4h3.983c0.055 1.394 0.224 2.736 0.492 4h-3.516zM8.021 18h5.979v4h-5.439c-0.3-1.28-0.481-2.62-0.54-4zM14 24v5.854c-0.456-0.133-0.908-0.355-1.351-0.668-0.831-0.586-1.625-1.488-2.298-2.609-0.465-0.775-0.867-1.638-1.203-2.578h4.852zM19.649 26.578c-0.673 1.121-1.467 2.023-2.298 2.609-0.443 0.312-0.895 0.535-1.351 0.668v-5.854h4.852c-0.336 0.94-0.738 1.802-1.203 2.578zM16 22v-4h5.979c-0.059 1.38-0.24 2.72-0.54 4h-5.439zM23.98 16c-0.055-1.394-0.224-2.736-0.492-4h3.516c0.533 1.278 0.855 2.619 0.959 4h-3.983zM25.958 10h-2.997c-0.582-1.836-1.387-3.447-2.354-4.732 1.329 0.636 2.533 1.488 3.585 2.54 0.671 0.671 1.261 1.404 1.766 2.192zM5.808 7.808c1.052-1.052 2.256-1.904 3.585-2.54-0.967 1.285-1.771 2.896-2.354 4.732h-2.997c0.504-0.788 1.094-1.521 1.766-2.192zM4.042 24h2.997c0.583 1.836 1.387 3.447 2.354 4.732-1.329-0.636-2.533-1.488-3.585-2.54-0.671-0.671-1.261-1.404-1.766-2.192zM24.192 26.192c-1.052 1.052-2.256 1.904-3.585 2.54 0.967-1.285 1.771-2.896 2.354-4.732h2.997c-0.504 0.788-1.094 1.521-1.766 2.192z"></path>
</symbol>
<symbol id="icon-earth" viewBox="0 0 32 32">
<title>earth</title>
<path class="path1" d="M16 0c-8.837 0-16 7.163-16 16s7.163 16 16 16 16-7.163 16-16-7.163-16-16-16zM16 30c-1.967 0-3.84-0.407-5.538-1.139l7.286-8.197c0.163-0.183 0.253-0.419 0.253-0.664v-3c0-0.552-0.448-1-1-1-3.531 0-7.256-3.671-7.293-3.707-0.188-0.188-0.442-0.293-0.707-0.293h-4c-0.552 0-1 0.448-1 1v6c0 0.379 0.214 0.725 0.553 0.894l3.447 1.724v5.871c-3.627-2.53-6-6.732-6-11.489 0-2.147 0.484-4.181 1.348-6h3.652c0.265 0 0.52-0.105 0.707-0.293l4-4c0.188-0.188 0.293-0.442 0.293-0.707v-2.419c1.268-0.377 2.61-0.581 4-0.581 2.2 0 4.281 0.508 6.134 1.412-0.13 0.109-0.256 0.224-0.376 0.345-1.133 1.133-1.757 2.64-1.757 4.243s0.624 3.109 1.757 4.243c1.139 1.139 2.663 1.758 4.239 1.758 0.099 0 0.198-0.002 0.297-0.007 0.432 1.619 1.211 5.833-0.263 11.635-0.014 0.055-0.022 0.109-0.026 0.163-2.541 2.596-6.084 4.208-10.004 4.208z"></path>
</symbol>
<symbol id="icon-mail4" viewBox="0 0 32 32">
<title>mail4</title>
<path class="path1" d="M16 0c-8.837 0-16 7.163-16 16s7.163 16 16 16 16-7.163 16-16-7.163-16-16-16zM8 8h16c0.286 0 0.563 0.061 0.817 0.177l-8.817 10.286-8.817-10.287c0.254-0.116 0.531-0.177 0.817-0.177zM6 22v-12c0-0.042 0.002-0.084 0.004-0.125l5.864 6.842-5.8 5.8c-0.045-0.167-0.069-0.34-0.069-0.517zM24 24h-16c-0.177 0-0.35-0.024-0.517-0.069l5.691-5.691 2.826 3.297 2.826-3.297 5.691 5.691c-0.167 0.045-0.34 0.069-0.517 0.069zM26 22c0 0.177-0.024 0.35-0.069 0.517l-5.8-5.8 5.865-6.842c0.003 0.041 0.004 0.083 0.004 0.125v12z"></path>
</symbol>
<symbol id="icon-facebook" viewBox="0 0 32 32">
<title>facebook</title>
<path class="path1" d="M19 6h5v-6h-5c-3.86 0-7 3.14-7 7v3h-4v6h4v16h6v-16h5l1-6h-6v-3c0-0.542 0.458-1 1-1z"></path>
</symbol>
<symbol id="icon-twitter" viewBox="0 0 32 32">
<title>twitter</title>
<path class="path1" d="M32 7.075c-1.175 0.525-2.444 0.875-3.769 1.031 1.356-0.813 2.394-2.1 2.887-3.631-1.269 0.75-2.675 1.3-4.169 1.594-1.2-1.275-2.906-2.069-4.794-2.069-3.625 0-6.563 2.938-6.563 6.563 0 0.512 0.056 1.012 0.169 1.494-5.456-0.275-10.294-2.888-13.531-6.862-0.563 0.969-0.887 2.1-0.887 3.3 0 2.275 1.156 4.287 2.919 5.463-1.075-0.031-2.087-0.331-2.975-0.819 0 0.025 0 0.056 0 0.081 0 3.181 2.263 5.838 5.269 6.437-0.55 0.15-1.131 0.231-1.731 0.231-0.425 0-0.831-0.044-1.237-0.119 0.838 2.606 3.263 4.506 6.131 4.563-2.25 1.762-5.075 2.813-8.156 2.813-0.531 0-1.050-0.031-1.569-0.094 2.913 1.869 6.362 2.95 10.069 2.95 12.075 0 18.681-10.006 18.681-18.681 0-0.287-0.006-0.569-0.019-0.85 1.281-0.919 2.394-2.075 3.275-3.394z"></path>
</symbol>
<symbol id="icon-github" viewBox="0 0 32 32">
<title>github</title>
<path class="path1" d="M16 0.395c-8.836 0-16 7.163-16 16 0 7.069 4.585 13.067 10.942 15.182 0.8 0.148 1.094-0.347 1.094-0.77 0-0.381-0.015-1.642-0.022-2.979-4.452 0.968-5.391-1.888-5.391-1.888-0.728-1.849-1.776-2.341-1.776-2.341-1.452-0.993 0.11-0.973 0.11-0.973 1.606 0.113 2.452 1.649 2.452 1.649 1.427 2.446 3.743 1.739 4.656 1.33 0.143-1.034 0.558-1.74 1.016-2.14-3.554-0.404-7.29-1.777-7.29-7.907 0-1.747 0.625-3.174 1.649-4.295-0.166-0.403-0.714-2.030 0.155-4.234 0 0 1.344-0.43 4.401 1.64 1.276-0.355 2.645-0.532 4.005-0.539 1.359 0.006 2.729 0.184 4.008 0.539 3.054-2.070 4.395-1.64 4.395-1.64 0.871 2.204 0.323 3.831 0.157 4.234 1.026 1.12 1.647 2.548 1.647 4.295 0 6.145-3.743 7.498-7.306 7.895 0.574 0.497 1.085 1.47 1.085 2.963 0 2.141-0.019 3.864-0.019 4.391 0 0.426 0.288 0.925 1.099 0.768 6.354-2.118 10.933-8.113 10.933-15.18 0-8.837-7.164-16-16-16z"></path>
</symbol>
<symbol id="icon-wordpress" viewBox="0 0 32 32">
<title>wordpress</title>
<path class="path1" d="M4 16c0 4.626 2.76 8.624 6.763 10.518l-5.724-15.274c-0.666 1.453-1.039 3.062-1.039 4.756zM24.101 15.41c0-1.445-0.533-2.445-0.989-3.223-0.608-0.963-1.179-1.778-1.179-2.741 0-1.074 0.836-2.074 2.015-2.074 0.053 0 0.104 0.006 0.155 0.009-2.135-1.905-4.979-3.069-8.103-3.069-4.192 0-7.881 2.095-10.026 5.268 0.282 0.009 0.547 0.014 0.772 0.014 1.255 0 3.198-0.149 3.198-0.149 0.647-0.037 0.723 0.889 0.077 0.963 0 0-0.65 0.074-1.373 0.111l4.37 12.66 2.626-7.671-1.869-4.989c-0.646-0.037-1.259-0.111-1.259-0.111-0.647-0.037-0.571-1 0.076-0.963 0 0 1.981 0.149 3.16 0.149 1.255 0 3.198-0.149 3.198-0.149 0.647-0.037 0.723 0.889 0.076 0.963 0 0-0.651 0.074-1.373 0.111l4.337 12.563 1.197-3.895c0.518-1.617 0.913-2.778 0.913-3.778zM16.211 17.022l-3.601 10.189c1.075 0.308 2.212 0.476 3.39 0.476 1.397 0 2.738-0.235 3.985-0.663-0.032-0.050-0.062-0.103-0.086-0.161l-3.688-9.842zM26.53 10.393c0.052 0.372 0.081 0.771 0.081 1.202 0 1.185-0.228 2.519-0.913 4.186l-3.665 10.321c3.568-2.026 5.967-5.79 5.967-10.102 0-2.032-0.533-3.943-1.47-5.607zM16 0c-8.837 0-16 7.163-16 16s7.163 16 16 16 16-7.163 16-16-7.163-16-16-16zM16 30c-7.732 0-14-6.268-14-14s6.268-14 14-14 14 6.268 14 14-6.268 14-14 14z"></path>
</symbol>
<symbol id="icon-linkedin" viewBox="0 0 32 32">
<title>linkedin</title>
<path class="path1" d="M29 0h-26c-1.65 0-3 1.35-3 3v26c0 1.65 1.35 3 3 3h26c1.65 0 3-1.35 3-3v-26c0-1.65-1.35-3-3-3zM12 26h-4v-14h4v14zM10 10c-1.106 0-2-0.894-2-2s0.894-2 2-2c1.106 0 2 0.894 2 2s-0.894 2-2 2zM26 26h-4v-8c0-1.106-0.894-2-2-2s-2 0.894-2 2v8h-4v-14h4v2.481c0.825-1.131 2.087-2.481 3.5-2.481 2.488 0 4.5 2.238 4.5 5v9z"></path>
</symbol>
<symbol id="icon-linkedin2" viewBox="0 0 32 32">
<title>linkedin2</title>
<path class="path1" d="M12 12h5.535v2.837h0.079c0.77-1.381 2.655-2.837 5.464-2.837 5.842 0 6.922 3.637 6.922 8.367v9.633h-5.769v-8.54c0-2.037-0.042-4.657-3.001-4.657-3.005 0-3.463 2.218-3.463 4.509v8.688h-5.767v-18z"></path>
<path class="path2" d="M2 12h6v18h-6v-18z"></path>
<path class="path3" d="M8 7c0 1.657-1.343 3-3 3s-3-1.343-3-3c0-1.657 1.343-3 3-3s3 1.343 3 3z"></path>
</symbol>
<symbol id="icon-codepen" viewBox="0 0 32 32">
<title>codepen</title>
<path class="path1" d="M29.555 11.501l-14-9.333c-0.336-0.224-0.774-0.224-1.109 0l-14 9.333c-0.278 0.185-0.445 0.498-0.445 0.832v9.333c0 0.334 0.167 0.647 0.445 0.832l14 9.333c0.168 0.112 0.361 0.168 0.555 0.168s0.387-0.056 0.555-0.168l14-9.333c0.278-0.185 0.445-0.498 0.445-0.832v-9.333c0-0.334-0.167-0.647-0.445-0.832zM15 20.465l-5.197-3.465 5.197-3.465 5.197 3.465-5.197 3.465zM16 11.798v-6.93l11.197 7.465-5.197 3.465-6-4zM14 11.798l-6 4-5.197-3.465 11.197-7.465v6.93zM6.197 17l-4.197 2.798v-5.596l4.197 2.798zM8 18.202l6 4v6.93l-11.197-7.465 5.197-3.465zM16 22.202l6-4 5.197 3.465-11.197 7.465v-6.93zM23.803 17l4.197-2.798v5.596l-4.197-2.798z"></path>
</symbol>
<symbol id="icon-home" viewBox="0 0 32 32">
<title>home</title>
<path class="path1" d="M32 18.451l-16-12.42-16 12.42v-5.064l16-12.42 16 12.42zM28 18v12h-8v-8h-8v8h-8v-12l12-9z"></path>
</symbol>
<symbol id="icon-envelop" viewBox="0 0 32 32">
<title>envelop</title>
<path class="path1" d="M29 4h-26c-1.65 0-3 1.35-3 3v20c0 1.65 1.35 3 3 3h26c1.65 0 3-1.35 3-3v-20c0-1.65-1.35-3-3-3zM12.461 17.199l-8.461 6.59v-15.676l8.461 9.086zM5.512 8h20.976l-10.488 7.875-10.488-7.875zM12.79 17.553l3.21 3.447 3.21-3.447 6.58 8.447h-19.579l6.58-8.447zM19.539 17.199l8.461-9.086v15.676l-8.461-6.59z"></path>
</symbol>
<symbol id="icon-user" viewBox="0 0 32 32">
<title>user</title>
<path class="path1" d="M18 22.082v-1.649c2.203-1.241 4-4.337 4-7.432 0-4.971 0-9-6-9s-6 4.029-6 9c0 3.096 1.797 6.191 4 7.432v1.649c-6.784 0.555-12 3.888-12 7.918h28c0-4.030-5.216-7.364-12-7.918z"></path>
</symbol>
<symbol id="icon-mug" viewBox="0 0 32 32">
<title>mug</title>
<path class="path1" d="M30 10h-6v-3c0-2.761-5.373-5-12-5s-12 2.239-12 5v20c0 2.761 5.373 5 12 5s12-2.239 12-5v-3h6c1.105 0 2-0.895 2-2v-10c0-1.105-0.895-2-2-2zM5.502 8.075c-1.156-0.381-1.857-0.789-2.232-1.075 0.375-0.286 1.075-0.694 2.232-1.075 1.811-0.597 4.118-0.925 6.498-0.925s4.688 0.329 6.498 0.925c1.156 0.381 1.857 0.789 2.232 1.075-0.375 0.286-1.076 0.694-2.232 1.075-1.811 0.597-4.118 0.925-6.498 0.925s-4.688-0.329-6.498-0.925zM28 20h-4v-6h4v6z"></path>
</symbol>
<symbol id="icon-happy" viewBox="0 0 32 32">
<title>happy</title>
<path class="path1" d="M16 32c8.837 0 16-7.163 16-16s-7.163-16-16-16-16 7.163-16 16 7.163 16 16 16zM16 3c7.18 0 13 5.82 13 13s-5.82 13-13 13-13-5.82-13-13 5.82-13 13-13zM16 18.711c3.623 0 7.070-0.963 10-2.654-0.455 5.576-4.785 9.942-10 9.942s-9.544-4.371-10-9.947c2.93 1.691 6.377 2.658 10 2.658zM8 11c0-1.657 0.895-3 2-3s2 1.343 2 3c0 1.657-0.895 3-2 3s-2-1.343-2-3zM20 11c0-1.657 0.895-3 2-3s2 1.343 2 3c0 1.657-0.895 3-2 3s-2-1.343-2-3z"></path>
</symbol>
<symbol id="icon-cool" viewBox="0 0 32 32">
<title>cool</title>
<path class="path1" d="M16 32c8.837 0 16-7.163 16-16s-7.163-16-16-16-16 7.163-16 16 7.163 16 16 16zM16 3c7.18 0 13 5.82 13 13s-5.82 13-13 13-13-5.82-13-13 5.82-13 13-13zM25 8c0.55 0 1 0.45 1 1v3c0 1.1-0.9 2-2 2h-4c-1.1 0-2-0.9-2-2h-4c0 1.1-0.9 2-2 2h-4c-1.1 0-2-0.9-2-2v-3c0-0.55 0.45-1 1-1h6c0.55 0 1 0.45 1 1v1h4v-1c0-0.55 0.45-1 1-1h6zM16 24c2.913 0 5.462-1.557 6.861-3.884l1.715 1.029c-1.749 2.908-4.935 4.855-8.576 4.855-1.514 0-2.95-0.337-4.236-0.94l1.036-1.727c0.98 0.429 2.061 0.668 3.199 0.668z"></path>
</symbol>
<symbol id="sqirl-svg" viewBox="0 0 821.9 491">
<title>sqirl</title>
<path id="big-gear" d="M803.6 239.6v-3.2l18.3-5.7c-.6-11.6-2-23-4.5-34l-19-.6c-2-7.5-4.3-15-7-22l15.2-11.7c-4.4-10.6-9.6-20.7-15.7-30.3l-18.2 5.8c-4.3-6.4-9-12.6-14.2-18.4l10.4-16c-7.7-8.5-16-16.2-25-23.2L728.7 92c-6.3-4.7-12.8-9-19.6-12.6l4.3-18.7c-10-5.2-20.6-9.7-31.5-13l-10.3 16c-7.4-2-15-3.8-22.7-5l-2.3-19c-8.6-1-17.3-1.7-26.2-1.7-2.7 0-5.3 0-8 .2l-4 18.7c-7.8.4-15.5 1.4-23 2.8l-8.8-17c-11.2 2.5-22 6-32.6 10.2l2.7 19c-7 3-14 6.6-20.7 10.6l-14-13c-9.6 6.2-18.7 13-27 20.8l8.8 17c-5.6 5.3-10.8 11-15.7 17l-17.5-7.4c-7 9-13 18.6-18.5 28.7l14.2 13c-3.4 6.8-6.4 14-9 21.4l-19-1c-3.5 10.8-6 22-7.5 33.4l17.7 7.3c-.7 6.5-1 13.2-1 20v3.2l-18.3 5.5c.6 11.6 2 23 4.4 34l19 .7c2 7.6 4.3 15 7 22L434.3 317c4.4 10.5 9.7 20.6 15.8 30.2l18.2-5.8c4.3 6.4 9 12.6 14 18.4l-10.3 16c7.6 8.5 16 16.2 25 23.2l15.2-11.7c6.2 4.6 12.7 8.8 19.5 12.6l-4.3 18.5c10 5.2 20.6 9.7 31.6 13.2l10.2-16.3c7.4 2.2 15 4 22.7 5.2l2.2 19c8.6 1 17.4 1.7 26.3 1.7 2.6 0 5.3 0 8-.2l4-18.7c7.8-.4 15.5-1.4 23-3l8.7 17c11.3-2.4 22-5.8 32.6-10l-2.5-19c7-3.2 14-6.7 20.6-10.7l14 13c9.5-6.2 18.6-13 27-20.7l-9-17c5.7-5.5 11-11.2 15.8-17.2l17.7 7.5c7-9 13-18.7 18.4-28.8l-14.2-13c3.4-6.8 6.3-14 9-21.3l19 1c3.4-10.8 6-22 7.4-33.4l-17.7-7.3c.8-6.5 1-13.2 1-20zm-183 161c-89 0-161.2-72-161.2-161s72-161 161-161 161 72 161 161-72 161-161 161z" class="st17"><animateTransform attributeType="xml" attributeName="transform" type="rotate" from="0 620.714 239.464" to="-360 620.714 239.464" dur="24s" repeatCount="indefinite"/></path><g id="artwork"><path d="M188.2 385.3H184c1.6 1.3 3 1.2 4.2 0zM288.7 323.8h-96.5s3.3 53.7-4 61.5l45.5.7v.2h13.5v-.2l45.5-.7c-7.3-7.8-4-61.5-4-61.5z" class="st1"/><path d="M292.7 385.3c1 1.2 2.5 1.3 4.2 0h-4.3z" class="st1"/><linearGradient id="SVGID_1_" x1="186.1" x2="186.1" y1="386.2" y2="385.2" gradientUnits="userSpaceOnUse"><stop offset="0" stop-opacity=".6"/><stop offset=".1" stop-opacity=".5"/><stop offset="1" stop-opacity="0"/></linearGradient><path d="M188.2 385.3H184c1.6 1.3 3 1.2 4.2 0z" class="st3"/><linearGradient id="SVGID_2_" x1="240.4" x2="240.4" y1="386.2" y2="323.8" gradientUnits="userSpaceOnUse"><stop offset="0" stop-opacity=".6"/><stop offset=".1" stop-opacity=".5"/><stop offset="1" stop-opacity="0"/></linearGradient><path d="M288.7 323.8h-96.5s3.3 53.7-4 61.5l45.5.7v.2h13.5v-.2l45.5-.7c-7.3-7.8-4-61.5-4-61.5z" class="st4"/><linearGradient id="SVGID_3_" x1="294.8" x2="294.8" y1="386.2" y2="385.2" gradientUnits="userSpaceOnUse"><stop offset="0" stop-opacity=".6"/><stop offset=".1" stop-opacity=".5"/><stop offset="1" stop-opacity="0"/></linearGradient><path d="M292.7 385.3c1 1.2 2.5 1.3 4.2 0h-4.3z" class="st5"/><path d="M482 320.6c0 6-4.8 10.6-10.7 10.6H10.6c-5.8 0-10.6-4.7-10.6-10.6v-310C0 5 4.8 0 10.6 0h460.7c6 0 10.6 4.8 10.6 10.7v310z" class="gear-white"/><g><path fill="#000" d="M482 10.7C482 4.7 477 0 471.2 0H10.6C4.8 0 0 4.8 0 10.7v277h482v-277z"/><path d="M10.6 331.2h460.7c6 0 10.6-4.7 10.6-10.6v-33H0v33c0 6 4.8 10.6 10.6 10.6z" class="st13"/></g><path d="M20.3 19h442v249.7h-442z" class="st9"/><path d="M247.7 303.5c0 3.8-3 7-7 7-3.8 0-7-3.2-7-7s3.2-7 7-7c4 0 7 3.2 7 7z" class="st6"/><path d="M161.8 382.8H318v7H161.8z" class="st13"/><g id="_x39_fK19M.tif" class="st8"><path d="M18.8 18.7c146.4-1 297-1 443.2 0H18.8zM18.8 18.7h.6v249.6c-1.4-82-.2-166.6-.6-249.6zM117.3 34.4c1.2-1 6.5-1 7.7 0h-7.7zM159.6 34.4c1.2-1 6.5-1 7.8 0h-7.8zM230 34.4c1.2-1 6.5-1 7.8 0H230zM272.3 34.4c1.3-1 6.6-1 7.8 0h-7.7zM314.7 34.4c1.2-1 6.5-1 7.8 0h-7.8zM342.7 34.4c1.3-1 6.6-1 7.8 0h-7.8zM385 34.4c1.3-1 6.6-1 7.8 0H385zM427.4 34.4c0-1 4-1 4.2 0h-4.2zM49.3 35c1-1 3.5-.5 5.3-.6h.6c.6 2.3-1.4 2.3-3.6 2.2-1.8.6-1.4-1-2.3-1v-.7zM60 35c2-1 7.5-1 9.5 0 0 3-7.6 1.5-9.5 1v-1zM82.7 36.6c-2.7-.5-7.6 1-8.4-1 0-.8 0-1 .6-1.2 2.5.3 6.6-.8 8.3.5 0 .7-.3 1-.6 1.6zM89.2 36.6c0-.6-.5-.7-.6-1-.5-2.2 2.4-1 3.6-1.2H97c.5-.2.5.2.6.5 0 .7-.3 1-.6 1.6h-7.8zM102.3 35c2-1 7.6-1 9.6 0-.2 3-7.7 1.5-9.7 1v-1zM125 34.4c3 3-7.7 3-8.3 1 0-.6 0-1 .6-1h7.7zM130.4 35c2-1.2 6-.4 9-.6 3 3-9.3 3.4-9 .5zM145.3 34.4c3 .2 7-.6 9 .5v1c-1.7 1-5.3.4-7.8.6-.8 0-1.3-.3-1.8-.6 0-.8 0-1.6.6-1.6zM167.4 34.4c3 3-7.8 3-8.4 1 0-.6 0-1 .6-1h7.8zM172.7 35c2-1 7.5-1 9.6 0 0 3-7.6 1.5-9.6 1v-1zM193 36.6c-2-.3-5.6.8-6-1 0-.8.2-1 .6-1.2 2.6.3 6.8-.8 8.4.5 0 .7-.3 1-.6 1.6H193zM202 36.6c0-.6-.5-.7-.6-1-.6-2.2 2.3-1 3.5-1.2h4.7c2.5 3.2-5 2-7.7 2.2zM215 35c2-1 7.6-1 9.6 0 0 3-7.6 1.5-9.5 1v-1zM237.8 34.4c3 3-7.8 3-8.4 1 0-.6 0-1 .6-1h7.8zM243 35c2-1.2 6.2-.4 9-.6 2.6 3-4.4 2-7 2.2-1.4.3-1-1-2-1v-.7zM258 34.4c3 .2 7-.6 9 .5v1c-2 1-7.5 1-9.6 0v-1.6h.6zM280 34.4c3 3-7.6 3-8.2 1 0-.6 0-1 .5-1h7.8zM285.5 35c2-1 7.5-1 9.5 0 .4 2.3-2.8 1.4-4.8 1.6H288c-1.4.2-1.7-.4-2.5-.6v-1zM309.3 35c-.4 2.3-8.4 2.3-9.5.5 0-.7 0-1 .6-1 3 0 7-.7 9 .4zM322.5 34.4c3 3-7.8 3-8.4 1 0-.6.2-1 .7-1h7.8zM327.8 35c2-1 7.5-1 9.6 0v1c-.8.2-1.2.8-2.4.6-2.4-.2-5.7.5-7.2-.6v-1zM350.5 34.4c3 3-7.8 3-8.4 1 0-.6.3-1 .7-1h7.8zM356 35c1.8-1.2 6-.4 8.8-.6 2.5 3-4.5 2-7.2 2.2-1.3.3-.8-1-1.7-1v-.7zM370.8 34.4c3 .2 7-.6 9 .5v1c-2 1-7.6 1-9.6 0v-1.6h.6zM384.5 34.4h8.4c2.5 3.2-5 2-7.7 2.2 0-.8-.8-1-.5-2.2zM398.2 35c2-1 7.5-1 9.6 0-.2 3-7.6 1.5-9.6 1v-1zM422 35c-.2.4-.6.8-.5 1.6-3-.5-8 1-9-1 0-.8.2-1 .6-1.2 3 .2 7-.6 9 .5zM429.8 36.6c-2 .2-3.4-.2-3-2.2H432.2c.3 1.7-.5 2.5-2.4 2.2zM242.5 180h-1.8V42c.6-2.5-1.4-7.4 1.8-7.3v145z" class="st16"/><path d="M49.3 35.5c1 .2.5 1.7 2.3 1V78h-2.3V35.5zM144.7 36c.5.3 1 .6 1.8.6V78h-1.8V36zM337.4 36v42.6c-.8-.2-1.2-.8-2.4-.6V36.6c1.2.2 1.6-.4 2.4-.6zM193 36.6h1.8V78H193V36.6zM288 36.6h2.2V78H288V36.6z" class="st16"/><path d="M49.3 80.3V78h2.3c1.2.3 3.6-.8 3 1 0 .8 0 1-.6 1.3h-4.7zM60.6 80.3c-.8-.2-.5-1.5-.6-2.3 3 .5 8-1 9 1 0 .8-.2 1-.7 1.3h-7.7zM75 80.3c-.8-.3-1.3-.8-1.3-1.7 2-.5 9.4-2 9.6 1-1.8 1.2-5.7.4-8.4.7zM88.6 80.3c-.7 0-.5-1-.6-1.7 2-1.2 6-.3 9-.6.7.8.7 1.4 0 2.2h-8.4zM103 80.3c-3-3 7.7-3 8.3-1.2 0 .8 0 1-.6 1.3H103zM117.3 80.3c-.8-.3-1.3-.8-1.2-1.7 2-.5 9.5-2 9.6 1-1.8 1.2-5.6.4-8.3.7zM131 80.3c-.7 0-.5-1-.6-1.7 2-1 7.5-1 9.5 0 0 1-.5 1.4-1.3 1.7H131zM144.7 78.6V78h1.8c2.4.4 6.6-1 7 1 .2.8 0 1-.5 1.3h-8.3v-1.7zM159.6 80.3c-.7-.3-1.2-.8-1.2-1.7 2-.5 9.4-2 9.6 1-1.8 1.2-5.7.4-8.4.7zM173.3 80.3c-.7 0-.5-1-.6-1.7 2-1 7.5-1 9.6 0 0 1-.5 1.4-1.2 1.7h-7.7zM187.6 80.3c-2.4-2.5 3-2.5 5.4-2.3h1.8c1-.2 2 2 .6 2.2h-7.8zM202 80.3c-.8-.3-1.3-.8-1.2-1.7 2-.5 9.4-2 9.5 1-1.8 1.2-5.6.4-8.3.7zM215.7 80.3c-.7 0-.5-1-.6-1.7 2-1 7.6-1 9.6 0 0 1-.4 1.4-1.2 1.7h-7.7zM230 80.3c-3-3 7.7-3 8.3-1.2 0 .8 0 1-.6 1.3H230zM244.3 80.3h-.6c-.3-.5-.6-1-.6-1.7 2-.7 8.6-1.5 9.7.5 0 .8-.2 1-.6 1.3h-7.7zM258 80.3c-.7 0-.5-1-.6-1.7 2-1 7.6-1 9.6 0 0 1-.5 1.4-1.2 1.7H258zM272.3 80.3c-3-3 7.8-3 8.4-1.2 0 .8 0 1-.6 1.3h-7.7zM288 78h2.2c1.8.2 4.7-.6 4.8 1 0 .8 0 1-.6 1.3h-7.7c-.5-.2-.6-.6-1.2-.6-.2-1.5.8-1.8 2.4-1.7zM299.8 79.7v-1c2-.6 9.4-2 9.5 1-.5 0-.6.6-1.2.5-2.6-.2-6.4.6-8.2-.5zM314.7 80.3c-3-3 7.8-3 8.4-1.2 0 .8 0 1-.5 1.3h-7.8zM335 78c1.2-.2 1.6.4 2.4.6v1.7H329c-.7-.3-1.2-.8-1.2-1.7 1.5-1 4.8-.4 7.2-.6zM342 79.7v-1c2-.6 9.6-2 9.7 1-.5 0-.6.6-1.2.5-2.7-.2-6.6.6-8.4-.5zM357 80.3c-3-3 7.8-3 8.4-1.2 0 .8 0 1-.6 1.3H357zM371.4 80.3h-.6c-.3-.5-.7-1-.6-1.7 2-.7 8.5-1.5 9.5.5 0 .8 0 1-.6 1.3h-7.6zM385 78c3 .6 9-1.5 9 1.7-.5 0-.6.6-1.2.5-2.7-.2-6.5.6-8.3-.5 0-.8.3-1.2.6-1.7zM399.4 80.3c-3-3 7.8-3 8.4-1.2 0 .8-.2 1-.6 1.3h-7.8zM413.7 80.3h-.6c-.2-.5-.6-1 0-1.2-.2-2 3.4-.5 5-1 1.6 0 4-.5 4 1 .2.8 0 1-.5 1.3h-7.8zM60.6 80.3h7.7c-1.2 1-6.5 1-7.7 0zM88.6 80.3h7.8c-1.2 1-6.6 1-7.8 0z" class="st16"/><path d="M103 80.3h7.7c-1.2 1-6.5 1-7.8 0zM131 80.3h7.7c-1.2 1-6.5 1-7.7 0zM173.3 80.3h7.8c-1 1-6.4 1-7.7 0zM187.6 80.3h7.8c-1 12.5-1 29 0 41.4h-7.8c.7-1.3 3.8-.2 5.4-.6V81.5c-.4-1.7-5 .5-5.4-1.2zM215.7 80.3h7.7c-1.2 1-6.5 1-7.7 0zM230 80.3h7.8c-1.3 1-6.6 1-7.8 0zM244.3 80.3h7.8c-1.2 1-6.5 1-7.7 0zM258 80.3h7.8c-1.2 1-6.5 1-7.8 0zM272.3 80.3h7.8c-1 1-6.4 1-7.7 0zM286.7 80.3h7.7c-.2 1.2-3 .2-4.2.5V111c0 3.2-.8 8.4 0 9.6 1 1.3 3.8-.4 3.6 1H286c3-.2 2-6 2-11V81.3c-.2-.6-1-.5-1.3-.6v-.5zM314.7 80.3h7.8c-1.3 1-6.6 1-7.8 0zM329 80.3h8.4v66.6H335v-23c1 0 1.5-.5 1.8-1.2-1-2.2-5.7-.7-8.4-1 1-1.4 4.6-.3 6.6-.7V81.5c-.7-1.7-5.3.5-6-1.2zM357 80.3h7.8c-1.2 1-6.5 1-7.8 0zM371.4 80.3h7.7c-1 1-6.4 1-7.6 0zM399.4 80.3h7.8c-1.3 1-6.6 1-7.8 0zM413.7 80.3h7.8c-1.3 1-6.6 1-7.8 0zM61.2 121.7c1.2-1 6.5-1 7.7 0H61zM75.5 121.7c1.2-1 6.5-1 7.8 0h-7.8zM103.5 121.7c1.3-1 6.6-1 7.8 0h-7.8zM131.6 121.7c1.2-1 6.5-1 7.7 0h-7.7zM159.6 121.7c1.2-1 6.5-1 7.8 0h-7.8zM215.7 121.7c1.2-1 6.5-1 7.7 0h-7.7zM230 121.7c1.2-1 6.5-1 7.8 0H230zM258 121.7c1.3-1 6.6-1 7.8 0H258zM272.3 121.7c1-1 6.2-1 7.2 0h-7.2zM300.4 121.7c1-1 6-1 7 0h-7zM314 121.7c1.3-1 6.6-1 8 0h-8zM342 121.7c1.4-1 6.7-1 8 0h-8zM370.2 121.7c1.4-1.3 5.3-.2 7.7-.6v.7H370zM412.5 121.7c1.2-1 6.6-1 7.8 0h-7.8zM51.6 124c-1.3 0-2-.5-1.7-1.8 1-.8 4.7-.8 5.8 0 .4 2.3-2.3 1.6-4.2 1.7zM69 121.7c.8 0 .4 1.4.5 2.2-2.8-.6-8 1-9-1.2 0-.7.2-1 .7-1H69zM83.3 121.7c.7 0 .5 1 .6 1.7-1 .8-3.2.4-5 .5-1.3-.5-4.6 1-4-1.2-.2-.7 0-1 .5-1h7.8zM88.6 122.2c2-1 7.5-1 9.6 0 0 1-.5 1.5-1.2 1.7-2.7-.3-6.6.5-8.4-.7v-1zM111.3 121.7c.7 0 .5 1 .6 1.7-1 .8-3.2.4-5 .5-1.2-.5-4.5 1-4-1.2-.2-.7 0-1 .5-1h7.8zM116.7 122.2c1.7-1 5.6-.3 8.3-.5.5 0 .6.5 1.2.5 0 3-7.6 1.6-9.5 1.2v-1.2zM139.3 121.7c3 3-7.7 3-8.3 1 0-.6 0-1 .6-1h7.7zM153 121.7c.8.2 1.3.7 1.2 1.7-1.6 1-5.2.3-7.7.5-.8 0-1.3-.4-1.8-.6v-1.2c1.8-1 5.6-.3 8.3-.5zM167.4 121.7c3 3-7.8 3-8.4 1 0-.6 0-1 .6-1h7.8zM182.3 122.2v1.2c-2 .4-9.4 2-9.6-1.2.5 0 .6-.5 1.2-.5 2.6.2 6.5-.6 8.3.5z" class="st16"/><path d="M193 124c-2-.4-5.6.7-6-1.2 0-.7.2-1 .6-1h7.8c1-.3 1 3-.6 2H193zM210.3 122.2v1.2c-2 .4-9.4 2-9.5-1.2.4 0 .6-.5 1.2-.5 2.7.2 6.5-.6 8.3.5zM223.4 121.7c.8 0 .5 1.4.6 2.2-2.8-.6-8 1-9-1.2 0-.7.2-1 .7-1h7.7zM237.8 121.7c.6 0 .5 1 .5 1.7-.8.8-3 .4-4.7.5-1.4-.5-4.7 1-4.2-1.2 0-.7 0-1 .6-1h7.8zM243 122.2c2-1 5.7-.3 8.5-.5.5 0 .6.5 1.2.5-.2 3-7.6 1.6-9.6 1.2v-1.2zM265.8 121.7c.7 0 .5 1 .6 1.7-1 .8-3 .4-4.8.5-1.3-.5-4.6 1-4.2-1.2 0-.7.2-1 .6-1h7.8zM279.5 121.7c.7.2 1.2.7 1.2 1.7-2 .4-9.4 2-9.5-1.2.4 0 .5-.5 1-.5h7.3zM288 124c-1.5 0-2.4-.2-2.5-1.2 0-.7 0-1 .6-1h7.8c2 1.5-1.3 2.7-3.6 2H288zM307.5 121.7c.8.2 1.3.7 1.2 1.7-2 .4-9.4 2-9.5-1.2.5 0 .6-.5 1.2-.5h7zM322 121.7c2.8 3-8 3-8.5 1 0-.6 0-1 .6-1h8zM335 124c-2.6-.6-8 1.3-7.8-1.8.5 0 .6-.5 1.2-.5 2.7.4 7.5-1 8.4 1-.3.8-.8 1.2-1.8 1.2zM350 121.7c.7 0 .4 1.4.5 2.2-3-.6-8 1-9-1.2 0-.7.2-1 .6-1h8zM364.8 122.2v1.2c-2 .4-9.4 2-9.5-1.2.4 0 .6-.5 1.2-.5 2.7.2 6.5-.6 8.3.5zM397.6 122.2c1.8-1 5.6-.3 8.4-.5.4 0 .6.5 1.2.5-.2 3-7.6 1.6-9.6 1.2v-1.2zM420.3 121.7c.7 0 .5 1 .6 1.7-1 .8-3.2.4-5 .5-1.3-.5-4.5 1-4-1.2-.2-.7 0-1 .5-1h7.8zM429.8 124c-2-.2-4.5.5-4.2-1.8.5 0 .6-.5 1.2-.5h4.8c.2 1.4-.2 2.4-1.8 2.2zM283 147c-.2.7.8 2.8-.5 2.7.3-1-.7-3 .6-2.8zM335 158.6h2.4v7.3c-1.3-1.8-5.4 0-9-.7 1-1.3 4.6-.2 6.6-.5v-6.2zM54.6 165.3v1.7c-2.5-.6-4 1.2-5.3 0v-1.7c1.3-1 2.8.6 5.3 0zM153.6 167c-3.3-.8-8 1.5-9-.6.3-3.2 5 0 8.4-1 .7 0 .6 1 .6 1.6zM186.5 166c2.3-.7 7-1.4 9-.7.6 0 .4 1 .5 1.7-2.3.7-6.8 0-9.5-.6v-.5zM286 165.3c3-.4 6-.3 9 .6v.5c-3.2 1-6 .8-9.5.5 0-.8 0-1.6.6-1.7z" class="st16"/><path d="M337.4 166v.4c-1.4 1.7-5.8 0-9.6.6 0-.8 0-1.6.6-1.7 3.6.6 7.7-1 9 .6zM431.6 167.6c-1-.8-4 0-4.8-1.2 0-2 3.8-.5 4.8-1.6.8.7.8 2 0 2.8zM69 166c.4 2-3 .6-4.2 1-1.5-.3-4.4.7-4.8-.6-.6-2 2.3-.7 3.6-1H69v.5zM73.7 166c2-1.3 6-.4 9-.7.7.2.7 1.7 0 1.7h-8.4c-.6 0-.5-.7-.6-1zM88 167v-1.7c3 .3 7.4-.6 9.6.6-1.2 2.2-6.5.5-9.6 1zM111.3 167c-2.8-.4-7.2.7-9-.6-.5-2 2.4-.7 3.6-1h5.3v1.6zM116.7 165.3c3 .3 7-.6 9 .6 0 .5-.2 1-.7 1h-8.3c-.8 0-.8-1.7 0-1.7zM130.4 166v-.7c2.8.4 7-.7 9 .6.4 2-3 .6-4.2 1-1.5-.3-4.4.7-4.8-.6v-.5zM159 165.3c3 .3 7-.6 9 .6 0 .5-.2 1-.6 1H159c-.7 0-.8-1.7 0-1.7zM181.7 166c.5 2-2.8.6-4.2 1-1.4-.3-4.3.7-4.8-.6-.4-2 3-.7 4.2-1 1.3.3 4.2-.8 4.7.5zM201.4 165.3c3 .3 7-.6 9 .6 0 .5-.2 1-.7 1h-8.3c-.8 0-.8-1.7 0-1.7zM224 166c.5 2-2.8.6-4 1-1.6-.3-4.5.7-5-.6-.4-2 3-.7 4.3-1 1.4.3 4.3-.8 4.7.5zM228.8 166c2-1.3 6-.4 9-.7.6 0 .5 1 .5 1.7-3-.3-7.4.6-9.5-.6v-.5zM243.7 165.3c3 .3 7-.6 9 .6v.5c-2 1-6 .3-9 .5-.7 0-.8-1.7 0-1.7zM271.2 166c2-1.3 6-.4 9-.7.6 0 .4 1 .5 1.7-3-.3-7.4.6-9.5-.6v-.5zM308.7 166c.5 2-2.8.6-4 1-1.6-.3-4.5.7-5-.6-.4-2 3-.7 4.3-1 1.4.3 4.3-.8 4.7.5zM313.5 166c2-1.3 6-.4 9-.7.7.2.7 1.7 0 1.7-3-.2-7 .6-9-.6v-.5zM351 166c.6 2-2.7.6-4 1-1.5-.3-4.4.7-5-.6-.3-2 3-.7 4.3-1 1.4.3 4.3-.8 4.8.5zM356 166c1.8-1.3 6-.4 8.8-.7.8.2.8 1.7 0 1.7-3-.2-7 .6-9-.6v-.5zM370.2 167c0-.8 0-1.6.6-1.7 3 .3 7-.6 9 .6v.5c-2.2 1-6.5.2-9.6.5zM393.4 166c.4 2-3.2.5-4.7 1-1.8 0-4 .3-4.8-.6.8-2 7.6-1.3 9.4-.5zM398.2 166c2-1.3 6-.4 9-.7.7.2.7 1.7 0 1.7h-8.4c-.6 0-.5-.7-.6-1zM412.5 167c0-.8 0-1.6.6-1.7 3 .3 7-.6 9 .6v.5c-2 1-6.4.2-9.5.5z" class="st16"/><path d="M337.4 166.4v86.2c-.5.2-.6-.2-.6-.5H335v-40.8c1.2.2 1.8 0 1.8-1 .2-1.3-1-1.2-1.8-1.2v-41c-1-1.5-6.2.7-7.2-1 3.8-.6 8.2 1 9.6-.6zM74.3 167h8.4c-1.5 1-7 1-8.4 0zM116.7 167h8.3c-1.4 1-7 1-8.3 0zM159 167h8.4c-1.5 1-7 1-8.4 0zM201.4 167h8.3c-1.4 1-7 1-8.3 0zM398.8 167h8.4c-1.5 1-7 1-8.4 0zM240.7 191.6c-.7 0-1 0-1.2-.5h3v.6h-1.8z" class="st16"/><path d="M240.7 191.6h1.8c.4 5.6-.8 12.7.6 17.4v1.7c-1.7 12.8.7 29.6-1 42.5-2 .6-1-1.7-1.3-2.8v-4-53-1.8zM48.7 209.6c.7-.5 1.6-.8 3-.6 1.3-.2 2.2 0 3 .6v1c-.8.5-1.7.8-3 .6-1.4.2-2.3 0-3-.5v-1zM59.4 209c2.8.4 7-.7 9 .6.2 3.4-5.8 1-8.4 1.6-.5-.5-.6-1.2-.6-2.2zM73.7 209c2.8.4 7.2-.7 9 .6-.2 3.2-6 1-9 1.6V209zM96.4 211.2c-3-.6-8.8 1.6-9-1.6 2-1.2 6-.4 9-.6.7.8.7 1.4 0 2.2zM139.3 210.7c-2 1-7.5 1-9.5 0 0-2.7 9.6-2.7 9.5 0zM146.5 211.2c-1 0-2 0-2.4-.5v-1.2c1 0 1.2-.7 2.5-.5 2.5.5 7.3-1.3 7 1.7-1.3 1-4.6.3-7 .5zM158.4 209c2.8.4 7.2-.7 9 .6-.2 3.2-6 1-9 1.6V209zM181.7 210.7c-2 1-7.5 1-9.6 0 0-2.7 9.8-2.7 9.7 0zM224 210.7c-2 1-7.5 1-9.5 0 0-2.7 9.6-2.7 9.5 0zM238.3 210.7c-2 1-7.5 1-9.5 0 0-2.7 9.6-2.7 9.5 0z" class="st16"/><path d="M243 209c3 .4 7.3-.7 9 .6 1 2.4-2 1.5-3.5 1.6H243v-.5-1.7zM266.4 210.7c-2 1-7.5 1-9.6 0 0-2.7 9.7-2.7 9.6 0zM280.7 210.7c-2 1-7.5 1-9.5 0 0-2.7 9.6-2.7 9.5 0zM288 211.2c-2 .3-2.8-.5-2.5-2.2h4.6c1.4.4 4.7-1 4.2 1 .5 2.2-2.8.8-4.2 1.2H288zM308.7 210.7c-2 1-7.5 1-9.5 0 0-2.7 9.6-2.7 9.5 0zM323 210.7c-2 1-7.5 1-9.5 0 0-2.7 9.6-2.7 9.6 0zM335 211.2c-2.4-.4-6.6 1-7.2-1 .3-2.5 5-.6 7.2-1.2 1 0 2 0 1.8 1 0 1-.6 1.4-1.8 1.2zM351 209.6c.2 3-7.2 1.7-9 1-.7-2.6 2.6-1.3 4.3-1.6 1.7 0 4-.3 4.8.6zM365.4 210.7c-2 1-7.5 1-9.5 0-.2-2.7 9.5-2.7 9.4 0zM370.2 209c2.8.4 7-.7 9 .6.2 3.4-6 1-8.4 1.6-.5-.5-.7-1.2-.6-2.2zM385 209c2.7.4 6.8-.7 8.4.6 0 3-5.6 1-8.3 1.6-.5 0-.6-.4-1-.5 0-.8.2-1.3.5-1.7h.6zM407.8 210.7c-2 1-7.6 1-9.6 0 0-2.7 9.6-2.7 9.6 0zM421.5 210c.5 2.2-2.8.8-4.2 1.2-1.7 0-4 .3-4.8-.5-.5-3 7.2-1.7 9-1.2v.6zM429.8 211.2c-1-.2-3.6.8-3-1-.6-2 2-1 3-1.2h2.4v2.2h-2.4z" class="st16"/><path d="M288 211.2h2.2v41H288v-41zM429.8 211.2h2.4v41h-2.4v-41zM51.6 252c1.2.3 3.6-.7 3 1.2 0 2-6.8 1.8-5.3-1h2.3zM60 252c2.8.5 7-.6 9 .7-.2 3.2-6 1-9 1.6V252zM83.3 253.8c-2 1-7.6 1-9.6 0 0-2.7 9.6-2.7 9.6 0zM97 253.8c-1.7.8-8.2 1.3-9-.6-.4-2 2.8-.7 4.2-1H97c.2.7.7.8 0 1.6zM102.3 252c2.8.5 7.2-.6 9 .7-.2 3.2-6 1-9 1.6V252zM125.6 253.8c-2 1-7.5 1-9.5 0 0-2.7 9.7-2.7 9.6 0zM130.4 252c2.8.5 7-.6 9 .7.2 3.4-5.8 1-8.4 1.6-.5-.5-.7-1.2-.6-2.2zM144.7 253.8c-.4-1.5.2-2 1.8-1.7 2.4.3 5.7-.4 7 .7.2 3-7 1.7-8.8 1zM168 253.8c-2 1-7.6 1-9.6 0 0-2.7 9.6-2.7 9.6 0zM172.7 252c2.8.5 7.2-.6 9 .7.2 3.4-5.8 1-8.4 1.6-.4-.5-.6-1.2-.6-2.2zM194.8 252c.7.3 1.2.8 1.2 1.8-2 .5-9.4 2-9.5-1.2 1.2-1 4.3-.3 6.5-.5h1.8zM210.3 253.8c-2 1-7.5 1-9.5 0 0-2.7 9.6-2.7 9.5 0zM215 252c3 .5 7.2-.6 9 .7.3 3.4-5.7 1-8.3 1.6-.5-.5-.7-1.2-.6-2.2zM238.3 253.8c-2 1-7.5 1-9.5 0 0-2.7 9.6-2.7 9.5 0zM252.7 253.8c-2 1-7.6 1-9.6 0 0-2.7 9.7-2.7 9.7 0zM257.4 252c2.8.5 7.2-.6 9 .7.2 3.4-5.8 1-8.4 1.6-.4-.5-.6-1.2-.6-2.2zM280.7 253.8c-2 1-7.5 1-9.5 0 0-2.7 9.6-2.7 9.5 0z" class="st16"/><path d="M290.2 252c1.8.2 4-.2 4.8.7 0 3-7.6 1.6-9.5 1-.2-1.4.8-1.8 2.4-1.6h2.2zM299.8 252c2.8.5 7-.6 9 .7-.2 3.2-6 1-9 1.6V252zM323 253.8c-2 1-7.5 1-9.5 0 0-2.7 9.6-2.7 9.6 0zM337.4 252.6v1.2c-2 .5-9.5 2-9.6-1.2 1.5-1 4.8-.3 7.2-.5h1.8c0 .4 0 .8.6.6zM342 252c3 .5 7.3-.6 9 .7 0 3.2-6 1-9 1.6V252zM365.4 253.8c-2 1-7.5 1-9.5 0-.2-2.7 9.5-2.7 9.4 0zM379.7 253.8c-2 1-7.5 1-9.5 0 0-2.7 9.6-2.7 9.5 0zM385 252c2.7.5 6.8-.6 8.4.7 0 3.2-6 1-9 1.6v-.5-1.7h.7zM407.8 253.8c-2 1-7.6 1-9.6 0 0-2.7 9.6-2.7 9.6 0zM422 252.6c0 2-2.4 1.8-4.7 1.7-2 0-5.2.8-4.8-1.7 2-.8 7.5-.8 9.6 0zM432.2 252v2.3c-1.6-.5-5.6 1.2-5.4-1-.6-2 2-1 3-1.2h2.4zM49.3 35c0-1.7 4.6-1.6 5.3-.6-1.8 0-4.4-.4-5.3.5zM49.3 80.3H54c-.2.7-1.5.4-2.4.5V121c1.7.2 4-.4 4.2 1.2-1-.8-5-.8-6 0 0 1.3.5 1.8 1.8 1.7V164c.4 1.4 4-.3 3.6 1.7.4 2-1.7 1.6-3.6 1.6V209c-1.3-.2-2.2 0-3 .6 1-13 1-30 0-43 1.4-27.8.3-57.8.7-86.3zm0 85v1.7c1.3 1.2 2.8-.6 5.3 0v-1.7c-2.5.6-4-1-5.3 0zM48.7 210.7c.7.4 1.6.7 3 .5v27.5h-2.4c-.4-9.2.7-19.8-.6-28zM49.3 250.4c1 0 2.2.3 2.3-.5h.6c-.4.3-.6 1-.6 2h-2.3v-1.6zM96.4 228.6h2.4v20c0 2.3.5 5.2-1.8 5.2.7-.8.2-1 0-1.7-.4-7.6.7-16.7-.6-23.4zM146.5 196v13c-1.3-.2-1.6.4-2.4.6v1c.6.5 1.4.7 2.5.6v41c-1.6-.4-2.2 0-1.8 1.6v-40.3c.7-2.4-1.3-2.2-1.2-4 1.3 0 1.3-1.4 1.2-2.7-.3-3.5.7-8.2-.6-10.7h2.5zM271.2 166.4c2 1.2 6.4.3 9.5.6-1.8.8-8.6 1.4-9.5-.6zM270.6 166c.4-1.3 2-1.5 3-2.3-2 2.5 5.7 0 6.5 1.6-2.8.3-7-.6-8.8.6h-.6zM285.5 167c3.4.3 6.3.5 9.5-.6 0 1.8-3 1-4.8 1.2V209H288v-41.4h-2.5v-.6zM290.2 153.6v10.6c.6 1.5 5-.5 4.8 1.7-3-1-6-1-9-.7-.2-.8 1.6-.2 2-.5 1.3-2.3-1.2-8.4 0-11.2h2.2z" class="st16"/><path d="M385 128.4v35.8c1.7 1.8 8.3-1 9 1.7 0 3-6 1-9 1.6V209h-.5c-.3.4-.6 1-.6 1.7.4 0 .5.5 1 .5v41h-.5v1.6c-2 0-2-2-1.8-4v-4-117.4h2.4zm-1 38c.8 1 3 .5 4.7.6 1.5-.5 5 1 4.7-1-1.8-1-8.6-1.5-9.5.4zM390 120.6c2-1.7 4-3.5 5.8-5.6h.6c-1.7 2-3.7 4-6 5.6.2.8 1.8 0 1.8 1H390v-1zM396.4 115c3.3-3.6 7-7 10.8-10-3.4 3.5-7 6.8-10.8 10zM407.2 105c3.3-3.7 7-7 10.7-10.2-3.4 3.6-7 7-10.8 10zM418 94.8c3.2-3.6 6.8-7 10.6-10-3.3 3.5-7 7-10.7 10zM429.8 85.3c1.7.5 1.6-.8 3-.6-1.4 41.4 0 82.8-.6 124.3h-2.4v-41c-.3-1.2-3.8.4-3.6-1.5-.3-2 1.8-1.8 3.6-1.7v-41c1.6.3 2-.7 1.8-2h-4.8c.2-1 1.5-.6 2.4-.7 1.4-10.7.2-24 .6-35.7zm1.8 79.5c-1 1-5-.5-4.8 1.6 1 1 3.7.4 4.8 1.2.8-.8.8-2 0-2.8z" class="st16"/><path d="M432.2 73.5c6.2 0 6.3 10.6.6 11.2-1.4-.2-1.3 1-3 .6 0-.6-.7-.4-1.2-.6-3.8 3.2-7.4 6.5-10.7 10-4 3.2-7.5 6.6-10.8 10.2-4 3-7.4 6.4-10.8 10h-.6c-2.2 1.6-4.2 3.5-6 5.6v3.3c0 2-1.6 2.4-2.3 3.8-1 0-1.3.7-2.4.6h-2.3c-1 0-1-.5-1.8-.6-12.8 7.7-25 16-37.7 23.5-1.3 3-1.8 7-6 7.3H335c-3 0-3.5-2.7-5.4-4-11.5-.8-22.4-2.4-34-3.3-3-.3-2.6 2.4-5.4 2.3H286.6c-4.7 3-8.8 6.7-13.2 10-1 1-2.5 1-3 2.3-7.8 5.8-15 12-23.2 17.8-1.3 0-.3 2.4-.6 3.4 0 1.7-1.3 2-1.8 3.3-1.2 0-1.3.7-2.5.6h-3c-1.2.3-1.5-.3-2.3-.5l-34.6 18c-1 .2-1.5.8-2.4 1-.7 2.6-1.6 5-3.6 6.2h-5.4c-2-1.2-3.4-3-4.2-5.6-12.3-4.6-24-9.7-36.3-14.4-1.4-1.3-2 1-4.2.5H143c-4 1.6-6.3 4.7-10.2 6.3-2.5 2.7-6.4 4-9 6.7-1.8 0-2.3 1.6-3.6 2.2-5.2 3.3-9.8 7.2-15.5 10-.7 2.6-1 5.5-3 6.8-1.4-.2-1.2 1-3 .6h-2.3c-1.6.4-1.2-1-2.4-1-11.8 6-25 11-37 16.7-2 1.5-1.6 5-4.8 5.6H48c-1.4 0-1.8-1-3-1.3-2.5-3-1-9 2.5-10h4.1c.4.7 1.3 1 2.4 1 12-5.5 24.3-10.7 36.4-16.2 2 0 1.3-2.5 2.4-3.3.5-1.4 2-1.8 3-2.8H99.4c.7 0 1 0 1.2.5 3.4-2 6-4.4 9.5-6.2.6-.3 1.2-.5 1.3-1 9.3-6 18-12.6 27.4-18.6 1.3 0 1.3-1.4 1.2-2.8.2-2.7 1.8-4.2 4.7-4.5h3.6c1.6 1.4 4 2.2 3.6 5.5 12.7 4.4 24.2 10 36.8 14.6 1.3 1.3 1.8-.6 3.6-.5h3c1 0 1.3.7 2.4.6 12-6 23.7-12.8 36.4-18.4.7-2 1.2-4 2.4-5.6 1.8 0 2-1.5 4-1h2c1 1 3-1.5 4.7-3 3.7-2.7 8.6-6 12-9.4h.5c1-.5 2-1.3 2.4-2.3.5 0 .6-.2.6-.5 7-4.6 13-10.2 19.7-15 1.3 0 .3-2 .6-3 .3-2.5 2-3.6 4.3-4.4h3c4-.2 3 4.6 7.7 4 0 1 2 .2 3 .5h2.4c0 1 2 0 3 .4h2.3c0 1.2 2.2.3 3 .6h2.4c0 1.2 2.2.2 3 .5h2.5c0 1.3 2 .3 3 .6h2.3c0 1.3 2.2.4 3 .7 4.2.7 4.7-2 7.2-2.8h2.4c0 .5 1 .3 1.8.4 7-3.2 12-8 19-11.2 5.6-4.3 12-7.8 18-11.7 1.2-.4 2.2-1 1.7-2.8v-.6c-.5-1.6 1.6-1 1-2.7 2 .4 1.3-1.5 3-1 1.8-.2 4 .2 5-.7 7.3-6.4 14.4-13.2 21.4-20 6-4.8 10.7-10.5 16.7-15.2V78c.3-2.8 2.3-3.8 4.8-4.5h2.4zm-3 2.3c-1.8 0-2 1.4-2.4 2.8 2 .2 1.6-1.5 3-1.7h2.4c1.5 0 1.2 1.8 1.2 3.2-1.2 1-2.8 1.6-3 3.4.7 0 1.7 0 1.8-.6.4 0 .7 0 .6-.5 1.4-.7 2.4-1.8 2.4-4-.6-1-1-2.3-2.4-2.7 0-1-3.7-1-3.6 0zm-45.3 43c-2.5-.3-5 2-3.7 3.4.8-1.5 3-1.6 3.6-3.3zm1 6.2c-.7.6-1.7 1-2.3 1.7 1 0 2.2.2 2.4-.6 1.7 0 4-2 2.5-3.2-.6 1-1.4 1.7-2.4 2.2zm-97 20.7c1-.3 3.8.7 4-.5-.6-.8-3.7-2-4.7-.6-1.6-.3-3 2.3-1.8 2.8.6-.7 1.6-1 2.4-1.7zm47 3.4c-1 0-1.6.5-1.8 1.2 1.5 0 3 0 3.6-.5h.6c1-1.6-2.6-1.6-2.4-.6zm-46 3c1.4 0 2.3-.2 2.4-1.2-1.3-.2-2.2 0-2.4 1zm49 4.4c.7-.5 3.4-2 1.8-2.8-.6.7-1.6 1-2.4 1.7-1.3.3-4-.7-4.2.5.6.8 3.7 2 4.8.6zm-100.8 28c2-.3 3.2-1.4 4-2.8-2 0-3.8.8-4 2.8zm6 4.4c.8 0 2.8-2 1-2.8-.2.8-.8 1.4-1.7 1.7h-.6c-.2.8-1.4.7-2 1h-.5c-1 1.8 3 1.6 3 .7.4 0 .7 0 .6-.6zm-95.5-1.6c0-1-3.7-1-3.6 0-1.5-.4-3 2.3-1.7 2.8.2-1.2 1.6-1.2 2.4-1.7h2.4c.4 0 2.4 1.4 2.5 0-1-.2-1-1-1.8-1zm47 19.6c2-.5-1-.8-1.7-.6-2 .5 1 .7 1.8.6zm1.3 6.7c1.2-.2 1.2-1.5 1.8-2.3-2-.4-1.2 1.6-3 1H193c-1 .5-2.5-1.5-3 0 1 .7 1.8 1.5 3 1.8 1-.3 3 .7 3-.5zM94 222c1.8-.8 3.7-1.5 4.8-3-2.7 0-4.5.7-4.8 3zm7.7 1.5c-1.2 1.7-3.7 2-5.3 3.4 3.3.6 6.4-1.8 5.3-3.5zM49.3 247c-1.4-.4-2.4-1-2.4-2.7 0-2.4 3-2 3.4-4-5.3-1-6.7 8-1 8 .2 1.2 2.6 0 2.8-.7.8-.2 1.3-.7 1.2-1.7-.8 0-1.3.2-1.8.5-.8.2-1 .8-2.3.6z" class="st12"/><path d="M432.2 34.4v39h-2.4V36.7c2 .3 2.7-.5 2.4-2.2zM408.3 96.5c5-5.6 11-10 16.2-15.7.3-.8-.7-3 .6-2.8v3.4c-6 4.7-10.7 10.4-16.7 15zM397.6 106c4-2.8 6.8-6.7 10.7-9.5-7 7-14 13.6-21.4 20 3-3.7 7.4-6.6 10.6-10.5z" class="st16"/><path d="M392.8 80.3c-1.4 1.2-5.3.2-7.7.5V116c1.3 1 2.7-.8 3.7-1.6 2.6-2.3 5.6-6.3 9-8.4-3.3 4-7.6 6.8-10.8 10.6-1 1-3.2.5-5 .6 1.5-23.5.3-49.4.7-74 .4-3-1.2-8 1.8-8.8-.3 1 .4 1.4.6 2.2V78c-.2.5-.5 1-.5 1.7 1.8 1 5.6.3 8.3.5zM327.8 35c1-2 8.7-2 9.6 0-2-1-7.6-1-9.6 0zM285.5 35c1-2 8.6-2 9.5 0-2-1-7.5-1-9.5 0zM288 124h2.2v18.4h-3c1.4-5 .3-12.5.7-18.5zM259.2 167.6c-1.8.2-2.6-.5-2.4-2.3 1.2-1 4-.4 6-.5 0 .3 0 .6-.6.5-4.8-.6-6.5 1.2-2.4 2.3h-.6zM186.5 166.4c2.7.7 7.2 1.3 9.5.6-1.5.7-1 2.3-1.2 3.4-1.2 10 .4 24.3.6 34h-3c1.4-11 .2-24.3.6-36.3-1-1.5-6.4 1-6.5-1.6zM193 124h1.8c.4 13.5-.8 28.6.6 41.3-1.8-.7-6.6 0-9 .6.5-2 4.4-1 6.6-1.2v-41zM187.6 34.4c1.8-1 7.2-.8 9 0 .2 1.2-.2 2-1.2 2.2.3-.5.6-1 .6-1.7-1.6-1.4-5.8-.3-8.4-.6zM144.7 123.3c.5.3 1 .6 1.8.6v30c0 3-.8 9.4 0 10.2 1.6 1.8 6.7-.7 6.5 1-3.3 1.2-8-2-8.3 1.3 1 2 5.6-.3 9 .5-1.3 1.3-5 .2-7.2.6V185h-1.8c-.2-20.6 0-40 0-61.7zM145.3 34.4c1.7-.8 8.2-1.4 9 .5-2-1.2-6-.4-9-.6zM144.7 78.6v1.7h8.3c-1 1.2-4.5.2-6.5.5V111c0 2.7-.7 8.8 0 9.6 1.6 1.7 6.6-.7 6.5 1-2.7.3-6.5-.5-8.3.6-.4-14.4.7-30.2-.6-43.6h.7zM138.7 192.2c1-.3 0-2.7 1.2-2.8 0 1.4 0 2.7-1.3 2.8zM97.6 35c.7-.2 1 0 1.2.5.4 60.4-.8 122.4.6 182H97c-.4-2 .7-5.3-.6-6.3.7-.8.7-1.4 0-2.2 1-6 .6-21 .6-30.8 0-2.5 1-9 0-10-1.6-1.8-8.3.5-9-1.2 3-.5 8.4 1.2 9.6-1-2.2-1.3-6.5-.4-9.6-.7 1.8-1.3 6.2-.2 9-.5v-41c.7 0 1.2-.6 1.2-1.6-2-1-7.5-1-9.6 0 1-2.2 5.7-.6 8.4-1V80c.7-.8.7-1.4 0-2.2V36.6c.3-.5.6-1 .6-1.7zM89.2 36.6c-1 0-1.3-1-1.2-2.2 1.8-.8 7.3-1 9 0h-4.8c-1.2.3-4-1-3.6 1 0 .5.6.6.6 1.2zM60 35c1-2 8.6-2 9.5 0-2-1-7.5-1-9.5 0zM75 34.4c1.6-1 7-.8 9 0 0 1.2-.3 2-1.3 2.2.3-.5.6-1 .6-1.7-1.7-1.4-5.8-.3-8.4-.6zM102.3 35c1-2 8.7-2 9.6 0-2-1-7.6-1-9.7 0zM130.4 35c.7-2 7.3-1.4 9-.6-3 .2-7-.6-9 .5zM172.7 35c1-2 8.7-2 9.6 0-2-1-7.5-1-9.6 0zM202 36.6c-1 0-1.4-1-1.2-2.2 1.7-.8 7.2-1 9 0h-5c-1 .3-4-1-3.4 1 0 .5.6.6.6 1.2zM215 35c1-2 8.7-2 9.6 0-2-1-7.5-1-9.5 0zM243 35c1-2 7.4-1.4 9-.6-2.8.2-7-.6-9 .5zM258 34.4c1.7-.8 8.2-1.4 9 .5-2-1.2-6-.4-9-.6zM300.4 34.4c1.6-.8 8.2-1.4 9 .5-2-1.2-6-.4-9-.6zM356 35c.6-2 7-1.4 8.8-.6-3 .2-7-.6-9 .5zM370.8 34.4c1.6-.8 8-1.4 9 .5-2-1.2-6-.4-9-.6zM398.2 35c1-2 8.6-2 9.6 0-2-1-7.6-1-9.6 0zM413 34.4c1.8-.8 8.3-1.4 9 .5-2-1.2-6-.4-9-.6zM390 120.6c1.6-2 3.6-4 5.8-5.6-1.7 2-3.7 4-6 5.6zM120.2 211.2c1.3-.7 1.8-2 3.6-2.2h1.2c.7 3-2.4 2.2-4.8 2.2z" class="st16"/><path d="M262.2 165.3c-.5 1-1.3 1.8-2.4 2.3-4-1-2.4-3 2.4-2.3zM432.2 83c0 .7-1 .5-1.8.6.2-1.8 1.8-2.4 3-3.3v.5c-1 .5-1.8 1.3-2.4 2.3h1.2z" class="st16"/><path d="M432.2 83H431c.6-1 1.4-1.7 2.4-2.2.3.8-2.3 1.4-.6 1.7 0 .5-.2.5-.6.5zM75 80.3c2.6-.3 6.5.5 8.3-.6-.6 2-7 1.4-8.4.5zM117.3 80.3c2.7-.3 6.5.5 8.3-.6-.6 2-7 1.4-8.3.5zM159.6 80.3c2.7-.3 6.6.5 8.4-.6-.6 2-7 1.4-8.4.5zM202 80.3c2.7-.3 6.5.5 8.3-.6-.6 2-7 1.4-8.3.5zM299.8 79.7c1.8 1 5.6.3 8.3.5-1.3 1-7.6 1.4-8.2-.5zM342 79.7c2 1 5.8.3 8.5.5-1.5 1-7.8 1.4-8.4-.5zM380.3 122.2c-1.4-1.3 1.2-3.7 3.6-3.3-.6 1.6-3 1.7-3.7 3.2zM116.7 122.2c.6-1.8 6.8-1.3 8.3-.5-2.7.2-6.6-.6-8.3.5zM174 121.7c1.4-.8 7.7-1.3 8.3.5-1.8-1-5.7-.3-8.4-.5zM202 121.7c1.4-.8 7.7-1.3 8.3.5-1.8-1-5.6-.3-8.3-.5zM243 122.2c.7-1.8 7-1.3 8.5-.5-2.8.2-6.6-.6-8.4.5zM356.5 121.7c1.4-.8 7.7-1.3 8.3.5-1.8-1-5.6-.3-8.3-.5zM397.6 122.2c.6-1.8 7-1.3 8.4-.5-2.8.2-6.6-.6-8.4.5zM385 125c1-.5 2-1.2 2.5-2.2 1.6 1.2-.8 3.3-2.4 3.3v-1zM288 145.7c-1 .6-2 1-2.5 1.7-1.3-.5.2-3 1.8-2.8.4 0 .7.5.6 1z" class="st16"/><path d="M287.3 144.6c1-1.4 4-.2 4.7.6-.2 1.2-3 .2-4 .5 0-.6-.3-1-.7-1zM69 166c2 2.3-9 2.3-9.6.4 0-3 7.7-1.7 9.5-1h-5.4c-1.3.3-4.2-1-3.6 1 .4 1.3 3.3.3 4.8.6 1.3-.4 4.6 1 4-1zM73.7 166c.8-2 7.3-1.5 9-.7-3 .3-7-.6-9 .6zM111.3 167c-1.8.8-8.6 1.4-9.6-.6 0-3 7.7-1.7 9.6-1H106c-1.3.3-4.2-1-3.7 1 1.8 1.3 6.2.2 9 .6zM116.7 165.3c1.6-.8 8-1.3 9 .6-2-1.3-6-.4-9-.7zM130.4 166v.4c.4 1.3 3.3.3 4.8.6 1.3-.4 4.6 1 4-1-1.7-1.4-6-.3-8.8-.7 1.8-.7 8.6-1.3 9.5.6.3 2.5-3.3 1.3-5.4 1.6-2 .3-6.3 0-4.2-1.7zM159 165.3c1.7-.8 8.2-1.3 9 .6-2-1.3-6-.4-9-.7zM182.3 166c-.3 3-8 1.5-10.2 1v-1.7c2.3-.6 9-1.4 10.3.6zm-5.4-.7c-1.4.4-4.7-1-4.3 1 .5 1.4 3.4.4 4.8.7 1.4-.4 4.7 1 4.2-1-.5-1.4-3.4-.3-4.8-.7zM201.4 165.3c1.6-.8 8-1.3 9 .6-2-1.3-6-.4-9-.7zM224.6 166c-.2 3-8 1.5-10 1v-1.7c2-.6 8.8-1.4 10 .6zm-5.3-.7c-1.4.4-4.7-1-4.2 1 .5 1.4 3.4.4 5 .7 1.2-.4 4.5 1 4-1-.4-1.4-3.3-.3-4.7-.7zM228.8 166c.8-2 7.3-1.5 9-.7-3 .3-7-.6-9 .6zM228.8 166.4c2 1.2 6.5.3 9.5.6-1.8.8-8.6 1.4-9.5-.6zM243.7 167c3-.2 7 .6 9-.6-.8 2-7.3 1.4-9 .6zM243.7 165.3c1.7-.8 8.2-1.3 9 .6-2-1.3-6-.4-9-.7zM309.3 166c-.2 3-8 1.5-10 1v-1.7c2-.6 9-1.4 10 .6zm-5.3-.7c-1.4.4-4.7-1-4.2 1 .4 1.4 3.3.4 4.8.7 1.3-.4 4.6 1 4-1-.3-1.4-3.2-.3-4.6-.7zM313.5 166c.8-2 7.3-1.5 9-.7-3 .3-7-.6-9 .6zM313.5 166.4c2 1.2 6 .4 9 .6-1.7.8-8.2 1.4-9-.6zM351.7 166c-.3 3-8 1.5-10.2 1v-1.7c2.2-.6 9-1.4 10.2.6zm-5.4-.7c-1.3.4-4.6-1-4.2 1 .6 1.4 3.5.4 5 .7 1.3-.4 4.6 1 4-1-.4-1.4-3.3-.3-4.7-.7zM356 166c.6-2 7-1.5 8.8-.7-3 .3-7-.6-9 .6zM356 166.4c1.8 1.2 6 .4 8.8.6-1.7.8-8.2 1.4-9-.6zM370.2 167c3-.3 7.4.6 9.5-.6-1 2-7.7 1.4-9.5.6zM370.8 165.3c1.6-.8 8-1.3 9 .6-2-1.3-6-.4-9-.7zM398.2 166c.8-2 7.3-1.5 9-.7-3 .3-7-.6-9 .6zM412.5 167c3-.3 7.4.6 9.6-.6-1 2-7.6 1.4-9.5.6zM413 165.3c1.8-.8 8.3-1.3 9 .6-2-1.3-6-.4-9-.7zM241.3 181.6c-1 1.4-2 2.5-4 2.8 0-2 1.8-2.7 4-2.8zM144 187.2c0-1 3.8-1 3.7 0-1.5 0-.7.4-.6 1h-2.3c0-.6 0-1-.6-1zM242.5 187.7c1-.3 1.5-1 1.8-1.7 1.7.8-.3 2.7-1.2 2.8-.5 0-.3-.6-.5-1zM242.5 189.4c0 1-4 1-3-.6h.6c.2 1 1.6.6 2.5.6zM194.8 212.3c1.8.5 1-1.5 3-1-.6.7-.6 2-1.8 2.2-1 .2-1-.5-1.2-1.2zM49.3 248.2c-5.6 0-4.2-8.8 1-8-.2 2.2-3.4 1.7-3.4 4 0 1.7 1 2.4 2.3 3v1zM51.6 246.5c.5-.3 1-.6 1.8-.6 0 1-.4 1.4-1.2 1.6-.4 0-.7-.5-.6-1zM432.8 75.8c1.4.4 1.8 1.7 2.4 2.8 0 2-1 3.2-2.4 4-1.7-.4 1-1 .6-1.8v-.6c0-1.4.3-3.2-1.2-3.3 0-.5 0-1.2.6-1.2zM429.8 77c-1.4 0-1 1.8-3 1.6.4-1.4.6-3 2.4-2.8.6 0 .5.7.6 1z" class="st16"/><path fill="#33ae93" d="M19.4 18.7H462v249.6H19.4V18.7zm30 59.3v2.2c-.5 28.6.6 58.6-.7 86.3 1 13 1 30 0 43v1.2c1.3 8.2.2 18.8.6 28h-1.8c-3.4 1-5 7-2.4 10 1.2.3 1.6 1.2 3 1.2.2.3.6.5 1.3.4v1.7c-1.5 3 5.3 3.2 5.3 1.2.6-2-1.8-1-3-1 0-1 .2-2 .6-2.3 3.2-.6 2.8-4.2 4.8-5.7 12-5.8 25.2-10.8 37-16.8 1.2 0 .8 1.5 2.4 1 1.3 6.8.2 16 .6 23.6h-4.8c-1.4.5-4.6-1-4.2 1.2.8 2 7.3 1.4 9 .6 2.3 0 1.7-3 1.8-5v-20.2c1.7.4 1.5-.8 3-.6 2-1.3 2.2-4.2 3-6.7 5.6-3 10.2-6.8 15.4-10 2.4 0 5.5.6 4.8-2.3h-1.2c2.6-2.6 6.5-4 9-6.7 4-1.6 6-4.7 10-6.2h1.3c1.4 2.6.4 7.3.7 10.8 0 1.3 0 2.7-1.2 2.8 0 1.7 2 1.5 1.2 4v40.2c1.7.6 9 1.8 9-1-1.5-1.2-4.8-.5-7.2-.7v-40.8c2.4-.2 5.7.5 7-.5.3-3-4.5-1.2-7-1.7v-13c2.2.6 2.8-1.7 4.2-.4 12.2 4.7 24 9.8 36.3 14.5.8 2.6 2 4.5 4.2 5.7h1.2c1.4 11 .2 24.4.6 36.4-2.2.3-5.3-.4-6.5.7 0 3 7.5 1.6 9.5 1 0-1-.5-1.4-1.2-1.6v-36.3h1.8c2-1.3 3-3.6 3.6-6 .6.4.2 2 1.8 1.5 2.4-.7 8 1.7 7.7-1.6-1-1.7-6 .5-7-1.2 11.5-5.8 23-11.8 34.5-18 .8.3 1 1 2.3.7.2.5.5.7 1.2.6V250.5c.3 1-.8 3.3 1.2 2.7 1.7-13-.7-29.7 1-42.5v.5h5.5c1.6 0 4.4.8 3.6-1.6-1.7-1.3-6-.2-9-.6-1.3-4.7 0-11.8-.5-17.4v-.5c1.2.2 1.3-.6 2.4-.5.4-1.2 1.7-1.6 1.7-3.3 1.3 0 .3-2.4.6-3.4 8-5.7 15.4-12 23.3-18h.6v.7c1 2 7.7 1.3 9.5.5 0-.6 0-1.6-.6-1.7-.7-1.7-8.4 1-6.5-1.6 4.4-3.4 8.5-7 13.2-10h1.2c-1.2 2.7 1.3 8.8 0 11-.4.4-2.2-.2-2 .6-.6 0-.6 1-.5 1.7v.6h2.4V209h-2.5c-.3 1.7.5 2.5 2.4 2.2v41c-1.7-.3-2.7 0-2.5 1.6 2 .5 9.4 2 9.5-1-1-1-3-.6-4.8-.7v-40.8c1.4-.4 4.7 1 4.2-1 .5-2.2-2.8-.8-4.2-1.2v-41.4c1.8-.2 4.7.6 4.8-1v-.7c.2-2.3-4.2-.3-4.8-1.8v-10.6c2.8 0 2.5-2.6 5.4-2.3 11.6 1 22.5 2.5 34 3.4 2 1.2 2.3 3.8 5.4 4v6c-2 .4-5.6-.7-6.6.6-.7 0-.6 1-.6 1.7 1 1.7 6.2-.5 7.2 1v41c-2.2.6-7-1.3-7.2 1 .6 2.2 4.8.8 7.2 1.2v41c-2.4 0-5.7-.6-7.2.4 0 3 7.6 1.7 9.6 1.2v-1.2-86.2-.5-7.4c4-.4 4.6-4.2 6-7.3 12.7-7.5 24.8-15.8 37.5-23.5.7 0 .7.7 1.7.6V250c-.2 2 0 3.7 1.8 3.8v.5c3-.6 8.8 1.6 9-1.7-1.7-1.2-5.8 0-8.4-.5v-40.8c2.8-.6 8.4 1.5 8.4-1.7-1.6-1.2-5.7 0-8.3-.5v-41.4c3-.7 9 1.5 9-1.7-.7-2.7-7.3 0-9-1.8v-35.8c1.2 0 1.4-.6 2.5-.6.7-1.4 2.3-1.8 2.4-4 2 .3 3.3 0 2.8-2h-.6c0-1-1.6-.4-1.7-1.2 2.2-1.7 4.2-3.5 6-5.6 3.7-3.2 7.3-6.5 10.7-10 3.8-3.2 7.4-6.6 10.7-10.2 3.7-3 7.3-6.5 10.6-10 .5 0 1.2 0 1.2.5-.4 11.7.8 25-.6 35.8-1 .2-2.2 0-2.4.7-.6 0-.7.4-1.2.5-.3 2.3 2.3 1.6 4.2 1.7v40.8c-1.8 0-4-.4-3.6 1.6-.2 2 3.3.4 3.6 1.7v41c-1 .2-3.6-.8-3 1-.6 2 2 1 3 1.2v41c-1 0-3.6-1-3 1-.2 2.3 3.8.6 5.4 1v-2-41-2.2c.5-41.5-.8-83 .6-124.3 5.7-.6 5.5-11-.6-11.2v-39h-.6c0-1-4-1-4.2 0h-.6c-.4 2 1 2.3 3 2v37c-2.5.7-4.5 1.7-4.8 4.5-1.2 0-.2 2-.5 2.8-5 5.6-11 10-16.2 15.7-4 2.8-6.8 6.7-10.7 9.5-3.3 2-6.3 6-9 8.4-1 .8-2.3 2.6-3.5 1.7V81c2.5-.3 6.4.7 7.8-.6.6 0 .7-.4 1.2-.5 0-3.2-6-1-9-1.7V36.6c3-.2 10.3 1 7.8-2.2-1.2-1-6.5-1-7.7 0h-.5c-3 .7-1.4 5.8-1.8 9-.4 24.3.8 50.3-.6 73.8-1.7-.4-1 1.5-3 1 .6 1.8-1.5 1.2-1 3-2.5.3-6.4-.8-7.8.5-.5 0-.7.4-.6 1 0 2.5 5.5 0 6.5 1.8-6 4-12.2 7.4-17.8 11.7-7 3.2-12 8-19 11.2-.7 0-1.7 0-1.8-.5V80v-1.6V36v-1c-1-2-8.7-2-9.6 0v1c1.5 1 4.8.4 7.2.6V78c-2.4.2-5.7-.5-7.2.6 0 1 .5 1.4 1.2 1.6.7 1.7 5.3-.5 6 1.2V121c-2 .5-5.6-.6-6.6.7-.6 0-.7.4-1.2.5 0 3 5.2 1.2 7.8 1.7v23c-2.6.7-3 3.4-7.2 2.7 0-1.3-2-.3-3-.6h-2.4c.2-1-2-.2-3-.5h-2.3c.2-1.2-2-.2-3-.5h-2.3c0-1.2-2-.3-3-.6h-2.4c0-1.2-2-.2-3-.5H301c0-1.4-2-.4-3-.7-4.8.7-3.6-4-7.8-4V124c2.3.5 5.7-.7 3.6-2.3.2-1.5-2.6.2-3.6-1.2-.8-1 0-6.3 0-9.5V80.8c1.3-.3 4 .7 4.2-.6.5 0 .7-.4.6-1 0-1.8-3-1-4.8-1.2V36.6c2-.2 5.2.7 4.8-1.7-1-2-8.6-2-9.5 0v1c.8.2 1 .8 2.4.6V78c-1.7 0-2.7.2-2.5 1.7.6 0 .7.4 1.2.5v.6c.4 0 1 0 1.2.6v29c0 5 1 11-2 11.3-.4 0-.6.4-.5 1 0 1 1 1.4 2.4 1.2-.5 6 .6 13.3-.7 18.4-2.2.8-4 2-4.2 4.5-1.2-.2-.2 1.8-.5 2.7-6.7 5-12.7 10.5-19.7 15-2 .2-4.8-.4-6 .6-.2 1.8.6 2.5 2.4 2.3-3.3 3.4-8.2 6.7-12 9.5-1.7 1.5-3.6 4-4.7 3V35c-3.2-.2-1.2 4.7-1.8 7.2V180c-2.2-.5-2.3 1-4 1-1.3 1.6-1.8 3.7-2.5 5.6-12.7 5.6-24.3 12.3-36.4 18.5-1 .2-1.3-.6-2.4-.5-.2-9.8-1.8-24-.6-34 0-1.2-.3-2.8 1.2-3.5 0-.6 0-1.6-.6-1.7-1.4-12.7-.2-27.8-.6-41.4 1.7.8 1.6-2.5.6-2.3-1-12.5-1-29 0-41.5 1.4 0 .4-2.4-.6-2.2V36.6h.6c1 0 1.4-1 1.2-2.2-1.8-.8-7.2-1-9 0-.4 0-.7.4-.6 1 .4 2 4 1 6 1.2V78c-2.4-.2-7.8-.3-5.4 2.2.5 1.7 5-.5 5.4 1.2V121c-1.6.5-4.7-.6-5.4.7-.4 0-.7.4-.6 1 .4 2 4 1 6 1.2v40.8c-2.2.3-6-1-6.6 1v.7c.2 2.4 5.6 0 6.6 1.6-.4 12 .8 25.5-.6 36.5-1.8 0-2.3 1.8-3.6.6-12.6-4.5-24-10-37-14.5.4-3.3-2-4-3.5-5.6h-1.8v-17.4c2.2-.4 6 .7 7-.6 0-.6.2-1.6-.5-1.7.2-1.8-5 .7-6.5-1-.8-1 0-7.2 0-10.2v-30c2.5-.3 6 .5 7.7-.6 0-1-.4-1.5-1.2-1.7 0-1.8-5 .6-6.5-1-.7-1 0-7 0-9.7V80.8c2-.3 5.5.7 6.5-.6.5 0 .7-.4.6-1-.5-2.2-4.7-.8-7-1.2V36.6c2.4-.2 6 .5 7.6-.6v-1c-.7-2-7.3-1.4-9-.7-.6 0-.6 1-.5 1.7v42.6h-.6c1.4 13.4.3 29.2.7 43.6v1c0 21.7-.2 41.2 0 61.7-3 .2-4.5 1.7-4.8 4.4-1.3 0-.2 2.5-1.3 2.8-9.3 6-18 12.5-27.4 18.5-.7 0-.7-1-.6-1.7-3 .2-7-.6-9 .5-.2 3.6 7 .4 8.4 2.3-3.4 1.8-6 4.3-9.4 6-.2-.3-.5-.5-1.2-.4-1.4-59.5-.2-121.5-.6-182-.2-.4-.5-.6-1.2-.5 0-.4 0-.8-.6-.6-1.7-1-7.2-.8-9 0 0 1.2.2 2 1.2 2.2H97V78c-3 .3-7-.6-9 .6 0 .6 0 1.6.6 1.6 1.2 1 6.6 1 7.8 0h.6v41c-2.7.4-7.5-1.2-8.4 1v1.2c1.8 1 5.6.3 8.4.5v40.8c-2.8.3-7.2-.8-9 .5v1.7c.7 1.7 7.4-.6 9 1 .8 1 0 7.7 0 10.2 0 10 .4 24.8-.6 30.8-3 .2-7-.6-9 .6.2 3.2 6 1 9 1.6 1.3 1 .2 4.3.6 6.2h-1.2c-1 1-2.5 1.4-3 2.8-1 .8-.5 3.3-2.4 3.3-12 5.5-24.4 10.7-36.4 16.3-1 0-2-.4-2.4-1V211c1.4.2 2.3 0 3-.5v-1.2c-.7-.4-1.6-.7-3-.5v-41.4c2 0 4 .3 3.6-1.7.3-2-3.2-.4-3.6-1.8V124c2-.2 4.6.5 4.2-1.8 0-1.6-2.5-1-4.2-1V80.7c1 0 2.2.2 2.4-.6.5 0 .7-.4.6-1 .6-2-1.8-1-3-1.2V36.6c2.2 0 4.2 0 3.6-2.2h-.6c-.7-1-5.4-1-5.3.5v43zm20-43c-.8-2-8.5-2-9.4 0v1c2 .5 9.4 2 9.5-1zm5.5-.6c-.6 0-.8.4-.7 1 .8 2.3 5.7.7 8.4 1.2 1 0 1.3-1 1.2-2.2-2-.8-7.4-1-9 0zm37 .5c-1-2-8.7-2-9.7 0v1c2 .5 9.5 2 9.6-1zm5.3-.6c-.5 0-.7.4-.6 1 .6 2 11.2 2 8.3-1-1.2-1-6.5-1-7.7 0zm22 0c-1.6-.8-8.2-1.4-9 .5-.2 2.8 12 2.4 9-.6zm20.3 0c-.5 0-.7.4-.6 1 .6 2 11.3 2 8.4-1-1.3-1-6.6-1-7.8 0zm22.7.5c-1-2-8.7-2-9.6 0v1c2 .5 9.5 2 9.6-1zm27.4-.6c-1.7-1-7.2-.8-9 0 0 1.2.2 2 1.3 2.2 2.7-.2 10.2 1 7.7-2.2zm15 .5c-1-2-8.7-2-9.6 0v1c2 .5 9.5 2 9.6-1zm5.3-.6c-.5 0-.7.4-.6 1 .6 2 11.3 2 8.4-1-1.3-1-6.6-1-7.8 0zm22 0c-1.6-.8-8-1.4-9 .5v.5c1 0 .6 1.4 2 1 2.6 0 9.6 1 7-2zm6 0h-.6V36c2 1 7.6 1 9.6 0v-1c-.8-2-7.3-1.4-9-.6zm14.3 0c-.4 0-.6.4-.6 1 .7 2 11.3 2 8.4-1-1-1-6.4-1-7.7 0zm28 0c-.4 0-.6.4-.5 1 1 2 9 2 9.5-.5-.7-2-7.3-1.4-9-.6zm14.4 0c-.5 0-.7.4-.6 1 .7 2 11.4 2 8.5-1-1.3-1-6.6-1-7.8 0zm28 0c-.4 0-.7.4-.6 1 .7 2 11.4 2 8.5-1-1.2-1-6.5-1-7.8 0zm22 0c-1.6-.8-8-1.4-8.8.5v.5c.8 0 .3 1.4 1.6 1 2.7 0 9.7 1 7.2-2zm6 0h-.5V36c2 1 7.5 1 9.5 0v-1c-.8-2-7.3-1.4-9-.6zm37 .5c-1-2-8.6-2-9.5 0v1c2 .5 9.4 2 9.6-1zm5.4-.6c-.3 0-.6.4-.5 1 1 2.3 6 .7 9 1.2 0-.8.3-1.2.6-1.7-.7-2-7.2-1.4-9-.6zm-344.7 46c.5-.3.7-.6.6-1.3-1-2-6-.5-9-1 0 .8-.2 2 .6 2.2 1.2 1 6.5 1 7.7 0zm15-.7c-.2-3-7.6-1.6-9.6-1 0 .8.5 1.3 1.2 1.5 1.4 1 7.7 1.4 8.3-.5zm27.4.5c.5 0 .7-.4.6-1-.6-2-11.3-2-8.4 1 1.2 1 6.5 1 7.7 0zm15-.5c-.2-3-7.7-1.6-9.6-1 0 .8.5 1.3 1.3 1.5 1.4 1 7.7 1.4 8.3-.5zm13 .5c.8-.2 1.3-.7 1.2-1.6-2-1-7.6-1-9.6 0 0 .6 0 1.6.6 1.7 1.2 1 6.5 1 7.7 0zm29.3-.5c-.2-3-7.6-1.6-9.6-1 0 .8.5 1.3 1.2 1.5 1.5 1 7.8 1.4 8.4-.5zm13 .5c.8-.2 1.3-.7 1.3-1.6-2-1-7.5-1-9.6 0 0 .6 0 1.6.6 1.7 1.3 1 6.6 1 7.8 0zm29.3-.5c0-3-7.6-1.6-9.5-1 0 .8.4 1.3 1.2 1.5 1.4 1 7.7 1.4 8.3-.5zm13 .5c1-.2 1.4-.7 1.3-1.6-2-1-7.5-1-9.5 0 .2.6 0 1.6.7 1.7 1.2 1 6.5 1 7.7 0zm14.4 0c.5 0 .7-.4.6-1-.6-2-11.2-2-8.3 1 1.2 1 6.5 1 7.8 0zm14.4 0c.5 0 .8-.4.7-1-1-2-7.6-1.3-9.6-.6 0 .7.4 1.2.7 1.7h.6c1.2 1 6.5 1 7.8 0zm13.8 0c.7-.2 1.2-.7 1.2-1.6-2-1-7.5-1-9.6 0 0 .6 0 1.6.6 1.7 1.3 1 6.6 1 7.8 0zm14.3 0c.6 0 .8-.4.7-1-.6-2-11.3-2-8.4 1 1.3 1 6.6 1 7.8 0zm28 0c.7 0 .8-.4 1.3-.5 0-3-7.6-1.6-9.5-1v1c.6 2 7 1.4 8.3.5zm14.5 0c.4 0 .6-.4.5-1-.6-2-11.2-2-8.3 1 1.2 1 6.5 1 7.8 0zm28 0c.6 0 .7-.4 1.2-.5 0-3-7.6-1.6-9.6-1v1c.7 2 7 1.4 8.5.5zm14.3 0c.5 0 .7-.4.6-1-.6-2-11.3-2-8.3 1 1.3 1 6.6 1 7.8 0zm14.3 0c.6 0 .8-.4.7-1-1-2-7.6-1.3-9.5-.6 0 .7.3 1.2.6 1.7h.6c1.2 1 6.5 1 7.7 0zm28.2 0c.4 0 .6-.4.6-1-.6-2-11.3-2-8.4 1 1.2 1 6.5 1 7.8 0zm14.3 0c.4 0 .7-.4.6-1 0-1.7-2.4-1-4-1.2-1.6.5-5.2-1-5 1-.6.2-.2.8 0 1.3h.7c1.2 1 6.5 1 7.8 0zM61.2 121.8c-.5 0-.7.4-.6 1 1 2.3 6 .7 9 1.2-.2-1 .2-2.2-.7-2.3-1.3-1-6.6-1-7.8 0zm14.3 0c-.5 0-.7.4-.6 1-.6 2.2 2.7.8 4 1.2 1.8-.2 4 .2 5-.6-.2-.7 0-1.6-.7-1.7-1.3-1-6.6-1-7.8 0zm28 0c-.4 0-.7.4-.6 1-.5 2.2 2.8.8 4 1.2 1.8-.2 4 .2 5-.6-.2-.7 0-1.6-.7-1.7-1.2-1-6.5-1-7.8 0zm21.5 0c-1.5-.8-7.7-1.3-8.3.5v1.2c2 .4 9.4 2 9.5-1.2-.6 0-.7-.4-1.2-.5zm6.6 0c-.5 0-.7.4-.6 1 .6 2 11.2 2 8.3-1-1.2-1-6.5-1-7.7 0zm28 0c-.5 0-.7.4-.6 1 .6 2 11.3 2 8.4-1-1.3-1-6.6-1-7.8 0zm14.3 0c-.7 0-.8.4-1.3.5.2 3 7.6 1.6 9.6 1.2v-1.2c-.6-1.8-7-1.3-8.4-.5zm28 0c-.6 0-.7.4-1.2.5 0 3 7.6 1.6 9.5 1.2v-1.2c-.6-1.8-7-1.3-8.3-.5zm13.7 0c-.5 0-.7.4-.6 1 1 2.3 6.2.7 9 1.2 0-1 .2-2.2-.6-2.3-1.2-1-6.5-1-7.7 0zm14.3 0c-.5 0-.7.4-.6 1-.5 2.2 2.8.8 4.2 1.2 1.7-.2 4 .2 4.7-.6 0-.7 0-1.6-.6-1.7-1.2-1-6.5-1-7.7 0zm21.5 0c-1.5-.8-7.8-1.3-8.4.5v1.2c2 .4 9.5 2 9.7-1.2-.6 0-.7-.4-1.2-.5zm6.5 0c-.4 0-.7.4-.6 1-.4 2.2 3 .8 4.2 1.2 1.7-.2 4 .2 4.8-.6 0-.7 0-1.6-.6-1.7-1.2-1-6.5-1-7.8 0zm14.3 0c-.6 0-.7.4-1 .5 0 3 7.4 1.6 9.4 1.2 0-1-.5-1.5-1.2-1.7-1-1-6-1-7.2 0zm28 0c-.5 0-.6.4-1 .5 0 3 7.5 1.6 9.4 1.2 0-1-.4-1.5-1.2-1.7-1-1-6-1-7 0zm13.8 0c-.4 0-.6.4-.5 1 .6 2 11.3 2 8.4-1-1.4-1-6.7-1-8 0zm28 0c-.3 0-.6.4-.5 1 1 2.3 6 .7 9 1.2 0-1 .2-2.2-.6-2.3-1.3-1-6.6-1-8 0zm14.5 0c-.6 0-.8.4-1.2.5 0 3 7.6 1.6 9.5 1.2v-1.2c-.6-1.8-7-1.3-8.3-.5zm49.5 0c-1.5-.8-7.8-1.3-8.4.5v1.2c2 .4 9.4 2 9.6-1.2-.6 0-.8-.4-1.2-.5zm6.5 0c-.4 0-.7.4-.6 1-.6 2.2 2.7.8 4 1.2 1.8-.2 4 .2 5-.6-.2-.7 0-1.6-.7-1.7-1.2-1-6.6-1-7.8 0zM69 165.3c-2-.6-9.6-1.8-9.6 1 .7 2 11.6 2 9.5-.4v-.7zm13.7 0c-1.7-.8-8.2-1.3-9 .6 0 .3 0 1 .6 1 1.4 1 7 1 8.4 0 .7 0 .7-1.5 0-1.7zm28.6 0c-2-.6-9.5-1.8-9.6 1 1 2 7.8 1.5 9.6.7v-1.7zm5.4 0c-.8 0-.8 1.6 0 1.7 1.4 1 7 1 8.3 0 .5 0 .7-.5.6-1-.8-2-7.3-1.5-9-.7zm13.7 0v.6c-2 1.5 2.2 2 4.2 1.6 2-.3 5.7 1 5.3-1.7-1-2-7.8-1.4-9.6-.7zm28.6 0c-.8 0-.7 1.6 0 1.7 1.4 1 7 1 8.4 0 .4 0 .7-.5.6-1-.8-2-7.3-1.5-9-.7zm13 0v1.7c2.2.5 10 2 10.3-1-1.2-2-8-1.3-10.2-.7zm29.4 0c-.8 0-.8 1.6 0 1.7 1.4 1 7 1 8.3 0 .5 0 .7-.5.6-1-.8-2-7.3-1.5-9-.7zm13 0v1.7c2.2.5 10 2 10.2-1-1.2-2-8-1.3-10-.7zm23.3 0c-1.6-.8-8-1.3-9 .6v.5c1 2 7.8 1.3 9.6.5 0-.6 0-1.6-.6-1.7zm6 0c-.8 0-.7 1.6 0 1.7 1.7.8 8.2 1.4 9-.6v-.5c-.8-2-7.3-1.5-9-.7zm55.5 0v1.7c2 .5 10 2 10-1-1-2-8-1.3-10-.7zm23.3 0c-1.7-.8-8.2-1.3-9 .6v.5c.8 2 7.3 1.3 9 .5.7 0 .7-1.5 0-1.7zm19 0v1.7c2 .5 10 2 10.2-1-1.2-2-8-1.3-10.2-.7zm23.3 0c-1.7-.8-8.2-1.3-9 .6v.5c.8 2 7.3 1.3 9 .5.8 0 .8-1.5 0-1.7zm6 0c-.7 0-.7 1-.6 1.7 1.8.8 8.6 1.4 9.5-.6v-.5c-.8-2-7.3-1.5-9-.7zm36.4 0c-1.7-.8-8.2-1.3-9 .6 0 .3 0 1 .6 1 1.4 1 7 1 8.4 0 .7 0 .7-1.5 0-1.7zm6 0c-.8 0-.7 1-.7 1.7 2 .8 8.6 1.4 9.6-.6v-.5c-.7-2-7.2-1.5-9-.7zM60 211.3c2.6-.8 8.6 1.7 8.3-1.7-1.8-1.3-6-.2-9-.6 0 1 .2 1.7.7 2.2zm13.7 0c3-.7 8.8 1.5 9-1.7-1.8-1.3-6.2-.2-9-.6v2.2zm56-.6c2 1 7.6 1 9.6 0 0-2.7-9.6-2.7-9.5 0zm28.7.5c3-.6 8.8 1.6 9-1.6-1.8-1.3-6.2-.2-9-.6v2.2zm13.7-.5c2.2 1 7.7 1 9.7 0 0-2.7-9.6-2.7-9.6 0zm42.5 0c2 1 7.5 1 9.5 0 0-2.7-9.6-2.7-9.5 0zm14.3 0c2 1 7.5 1 9.5 0 0-2.7-9.6-2.7-9.5 0zm28 0c2 1 7.6 1 9.6 0 0-2.7-9.6-2.7-9.6 0zm14.4 0c2 1 7.5 1 9.5 0 0-2.7-9.6-2.7-9.5 0zm28 0c2 1 7.5 1 9.5 0 0-2.7-9.6-2.7-9.5 0zm14.3 0c2 1 7.5 1 9.5 0 0-2.7-9.6-2.7-9.5 0zm32.8-1.7c-1.7.3-5-1-4.2 1.7 1.8.6 9.2 1.8 9-1.2-.8-.8-3-.4-4.7-.5zm9.6 1.7c2 1 7.4 1 9.4 0 0-2.7-9.6-2.7-9.5 0zm14.8.5c2.5-.7 8.6 1.8 8.3-1.6-1.7-1.3-6-.2-8.8-.6 0 1 0 1.7.6 2.2zm27.4-.5c2 1 7.5 1 9.6 0 0-2.7-9.7-2.7-9.6 0zm23.3-1c-1.8-.7-9.5-2-9 1 1 .8 3 .5 4.8.5 1.4-.4 4.6 1 4.2-1v-.6zM60 254.2c3-.6 8.8 1.6 9-1.7-2-1.2-6.2 0-9-.5v2.3zm13.7-.5c2 1 7.5 1 9.6 0 0-2.7-9.7-2.7-9.6 0zm28.6.5c3-.6 8.8 1.6 9-1.7-1.8-1.2-6.2 0-9-.5v2.3zm13.8-.5c2 1 7.6 1 9.6 0 0-2.7-9.6-2.7-9.5 0zm15 .5c2.6-.7 8.6 1.8 8.3-1.7-1.8-1.2-6 0-9-.5 0 1 .2 1.8.7 2.3zm27.4-.5c2 1 7.5 1 9.6 0 0-2.7-9.7-2.7-9.6 0zm15 .5c2.5-.7 8.5 1.8 8.3-1.7-1.8-1.2-6.2 0-9-.5 0 1 .2 1.8.6 2.3zm27.4-.5c2 1 7.5 1 9.5 0 0-2.7-9.6-2.7-9.5 0zm15 .5c2.5-.7 8.5 1.8 8.2-1.7-1.8-1.2-6 0-9-.5 0 1 .2 1.8.7 2.3zm13-.5c2 1 7.5 1 9.5 0 0-2.7-9.6-2.7-9.5 0zm14.3 0c2 1 7.6 1 9.7 0 0-2.7-9.7-2.7-9.6 0zm15 .5c2.6-.7 8.6 1.8 8.4-1.7-1.8-1.2-6.2 0-9-.5 0 1 .2 1.8.6 2.3zm13.2-.5c2 1 7.5 1 9.5 0 0-2.7-9.6-2.7-9.5 0zm28.6.5c3-.6 8.8 1.6 9-1.7-2-1.2-6.2 0-9-.5v2.3zm13.7-.5c2 1 7.5 1 9.5 0 0-2.7-9.6-2.7-9.5 0zm28.6.5c3-.6 9 1.6 9-1.7-1.7-1.2-6 0-9-.5v2.3zm14-.5c2 1 7.4 1 9.4 0 0-2.7-9.6-2.7-9.5 0zm14.2 0c2 1 7.5 1 9.5 0 0-2.7-9.6-2.7-9.5 0zm28 0c2 1 7.5 1 9.6 0 0-2.7-9.7-2.7-9.6 0zm14.3-1.2c-.4 2.5 2.8 1.6 4.8 1.7 2.3 0 4.7.4 4.8-1.7-2-.8-7.4-.8-9.5 0z" class="st15"/><path d="M378 121.7c.4 2-.6 2.4-2 2.8-1-1.7-6.3.7-6.4-1.7 0-.7 0-1 .6-1h7.7zM298 146.3c1 .3 3-.7 3 .6-1-.4-3 .5-3-.7zM303.4 147c.8.2 3-.8 3 .4-1-.3-3 .7-3-.5zM308.7 147.4c1 .3 3-.6 3 .6-1-.3-3 .6-3-.6zM314 148c1 .3 3.2-.7 3 .5-.8-.3-3 .7-3-.5zM319.5 148.5c.8.3 3-.6 3 .6-1-.2-3 .8-3-.5zM335 149c-.2-1 3.3-1 2.4.7h-.6c0-.7-1-.6-1.8-.6zM324.8 149c1 .4 3-.6 3 .7-.8-.3-3 .6-3-.6z" class="st16"/><path d="M336.8 149.7c-.7.6-2 .6-3.6.5.3-.7.8-1 1.8-1 .8 0 1.7-.2 1.8.5zM291.4 150.8c0 1-1 1.3-2.4 1 .2-1 1-1.2 2.4-1zM246.7 187.2c.3-1-.7-3.3.6-3.4-.3 1 .7 3.3-.6 3.4zM147.7 187.2c.8.2 1 1 1.8 1 0 1.5-2 .2-2.4 0 0-.6-.8-1 .7-1zM242.5 187.7c.2.5 0 1 .6 1 .2.6 0 .7-.5.7-1 0-2.3.3-2.4-.6.6-.4 1.8-.3 2-1h.5zM144.7 188.3c-.8.5-2.2.5-2.4 1.7-1.2-.5.2-3.2 1.8-2.8.6 0 .8.4.7 1zM193 206.2c.7-.2 3.7 0 1.8.6-.7 0-3.7 0-1.8-.6zM200.2 209.6c1-.3 1.5-1 2.4-1.2 1 1.7 6-.5 7 1.2.5 3.3-5.2 1-7.6 1.6-1.6.4-1.2-1-1.8-1.6zM110 211.8c-1.4-2-8.5 1.3-8.3-2.3 2-1 6-.3 9-.5 0 .8 0 1.6.6 1.7 0 .6-.7.8-1.2 1zM96.4 227c1.6-1.4 4-1.8 5.3-3.5 1 1.7-2 4-5.3 3.4zM48 250h3.6c0 .7-1.4.4-2.3.4-.7 0-1 0-1.2-.5zM337.4 155.3c.8-.6 1.8-1 2.4-1.7 1.6.8-1 2.3-1.8 2.8-.6 0-.5-.7-.6-1z" class="st16"/><path d="M338 156.4c-1 1.4-4.2.2-4.8-.6.2-1.2 3-.2 4.2-.5 0 .4 0 1 .6 1zM193 214c-1.2-.3-2-1-3-1.7.5-1.6 2 .4 3 0v1.7zM98.8 219c-1 1.5-3 2.2-4.8 3 .3-2.3 2-3 4.8-3zM429.2 75.8c0-1 3.7-1 3.6 0-.6 0-.5.7-.6 1h-2.4c0-.3 0-1-.6-1zM385 126c0 1-1.4.6-2.3.7.6-.7 1.6-1 2.4-1.7v1zM194.8 212.3c0 .7.2 1.4 1.2 1.2 0 1.2-2 .2-3 .5v-1.7h1.8zM194.8 215.7V252H193c-.4-12 .8-25.3-.6-36.3h2.4zM49.3 247c1.2.3 1.5-.3 2.3-.5 0 .6.2 1 .6 1-.2.8-2.6 2-3 .7v-1zM390 121.7H392.7c.5 2-1 2.4-3 2.2v-2.3z" class="st16"/></g><g class="st2"><path d="M481 320.6v-310C481 5 476 0 470.2 0h-324l258.4 331.2h65.6c6 0 10.6-4.7 10.6-10.6z" class="st10"/><path d="M481 320.6v-310C481 5 476 0 470.2 0h-324l258.4 331.2h65.6c6 0 10.6-4.7 10.6-10.6z" class="st14"/></g><g id="XorXqL.tif"><path fill="#000" d= "M592.5 87.5h26.3c88.3 8 146 47 156.4 132.8v22.4c-4.2 29-8 52.6-21.3 74.6-12 19.8-31.3 36-33.2 62.7-1.3 19.7 3 39.5 5.7 57.8 2.8 18.2 5.7 35.8 9.5 53.2H538.7c-3.7-18.2-5.4-38.3-15-50.4-21.8-1.4-41.8 1.5-59.6-.6-11.6-1.4-26-11-28-23-2-13.3 9-22.3 7.4-34.7-.5-3.7-2.6-7-4.5-9.5-1.5-1.8-6-4.8-6.2-8-.4-4.8 6.5-7.6 7.2-11.7-3.2-4.8-9-6-9.5-11.6-.4-6.7 11.7-16.4 9.5-25.8-1.2-5.3-9-4.4-14.5-6.2-7-2.2-13.4-7-16.3-12.3v-5.5c12.7-28.2 35.7-46.2 51-71.8-8-19.7 2-46.4 10.7-62.2 22.5-41.2 66.3-65.5 121.5-70z" class="st7"/></g></g><g id="gears"><path d="M710.2 187.2v-.4-.7c0-2.6-.4-5-1.2-7.6v-.4l7.2-5.6-2.5-4.7-8.7 3c0-.2-.2-.3-.3-.5-1.8-2.2-4-4-6.3-5.6l-.3-.2 2-9c-1.5-.8-3.2-1.4-5-2l-4.7 7.8h-.4c-1.8-.4-3.5-.6-5.3-.6-1 0-2.2 0-3.3.2h-.4l-4.2-8c-1.8.4-3.5 1-5 1.6l1.2 9-.4.2c-2.5 1.4-4.7 3.2-6.6 5.2l-.3.3-8.5-3.3c-1 1.4-2 3-2.8 4.5l6.8 6c0 .2 0 .3-.2.5-1 2.5-1.6 5.3-1.7 8.2v.3l-8.7 2.8c0 2 .3 3.7.7 5.4l9 .3.2.4c1 2.8 2.3 5.3 4 7.5l.2.4-4.8 7.6c1 1.3 2.4 2.5 3.8 3.6l7.2-5.7.4.3c2.3 1.4 5 2.5 7.8 3 0 .2.2.2.4.2l1.2 9c1.3.2 2.6.3 4 .3h1.3l2-9h.4c3-.4 5.6-1.3 8-2.6.2 0 .3 0 .4-.2l6.8 6.2c1.5-1 3-2 4.2-3.3l-4.3-8c0-.2.2-.3.3-.4 1.8-2 3.4-4.5 4.5-7v-.5l9.3.3c.5-1.6.8-3.4 1-5.2l-8.4-3.4zm-25.6 18.3c-10.4 0-19-8.5-19-19s8.6-19 19-19c10.5 0 19 8.6 19 19s-8.5 19-19 19z" class="gear-green"><animateTransform attributeType="xml" attributeName="transform" type="rotate" from="0 685.214 186.464" to="-360 685.214 186.464" dur="6s" repeatCount="indefinite"/></path><path d="M736.6 187.6v-1-1.3c0-5.4-.7-10.6-2.2-15.4 0-.4-.2-.7-.3-1l14.7-11.3c-1.4-3.3-3-6.5-5-9.5L726 154l-.4-.7c-3.6-4.5-7.8-8.3-12.7-11.4l-.8-.6 4-18c-3.2-1.7-6.6-3-10-4l-9.8 15.6c-.3 0-.5 0-.8-.2-3.4-.7-7-1-10.4-1-2.3 0-4.5 0-6.7.4h-.8L669 118c-3.4.8-6.8 2-10.2 3.3l2.7 18.2-.8.5c-5 2.7-9.6 6.2-13.4 10.4l-.6.7-17-7c-2.2 3-4 6-5.8 9.2l13.6 12.3c0 .3-.2.5-.3.8-2 5.2-3.3 10.8-3.6 16.6v.8l-17.6 5.6c.3 3.6.8 7.2 1.6 10.7l18.4.7c0 .3.2.5.3.8 1.8 5.5 4.5 10.6 8 15l.5.8-10 15.5c2.6 2.7 5.3 5 8 7.3l14.6-11.3c.3 0 .5.3.8.4 4.8 3 10 5.3 15.8 6.6h.8l2.5 18.4c2.6.3 5.2.5 8 .5h2.8l3.8-18c.3-.2.6-.2 1-.3 5.7-.8 11-2.6 16-5.2.4 0 .6-.3 1-.4l13.5 12.5c3-2 6-4 8.5-6.6L723 220c.3 0 .5-.3.7-.5 3.8-4.3 6.8-9 9-14.4l.4-.7 18.6.7c1-3.4 1.7-7 2.2-10.5l-17.2-7zm-51.6 37c-21.2 0-38.3-17.2-38.3-38.4 0-21 17-38.3 38.3-38.3 21 0 38.3 17 38.3 38.2 0 21.2-17.2 38.3-38.3 38.3z" class="gear-orange"><animateTransform attributeType="xml" attributeName="transform" type="rotate" from="0 685.214 186.464" to="-360 685.214 186.464" dur="6s" repeatCount="indefinite"/></path><path d="M617.4 166.4v-.6-1c0-4-.6-7.7-1.7-11.3 0-.2 0-.4-.2-.6l10.6-8.2c-1-2.4-2-4.8-3.5-7l-12.7 4.2c-.2 0-.3-.3-.4-.5-2.6-3.2-5.7-6-9.2-8.2-.2 0-.3-.3-.5-.4l3-13c-2.5-1.3-5-2.3-7.4-3l-7 11.3h-.7c-2.4-.6-5-1-7.5-1-1.5 0-3 .2-4.7.4h-.6l-6.2-11.8c-2.6.6-5 1.4-7.4 2.4l2 13.2-.6.3c-3.6 2-7 4.4-9.7 7.5-.2 0-.3.3-.4.4l-12.4-5.2c-1.7 2-3 4.3-4.3 6.7l10 9-.2.5c-1.5 3.7-2.4 7.8-2.6 12v.6l-13 4c.3 2.7.6 5.3 1.2 7.8l13.3.5.2.5c1.4 4 3.3 7.6 5.8 11l.4.4-7.3 11c1.8 2 3.8 3.8 5.8 5.4L560 196l.6.5c3.4 2 7.3 3.7 11.4 4.6l.6.2 1.8 13.3c2 .2 3.8.3 5.8.3h2l2.7-13 .6-.2c4-.6 8-2 11.7-3.8l.6-.3 9.7 9c2.2-1.4 4.3-3 6.2-4.8l-6.4-11.8c0-.2.3-.4.4-.5 2.7-3 5-6.6 6.6-10.5 0-.2 0-.4.2-.6l13.4.6c.7-2.5 1.3-5 1.6-7.6l-12.4-5zM580 193c-15.3 0-27.7-12.3-27.7-27.6s12.4-27.7 27.7-27.7c15.3 0 27.7 12.4 27.7 27.7 0 15.3-12.4 27.7-27.7 27.7z" class="gear-orange"><animateTransform attributeType="xml" attributeName="transform" type="rotate" from="0 580.214 165.464" to="360 580.214 165.464" dur="6s" repeatCount="indefinite"/></path><path d="M766.2 227.3v-.2-.3c0-1.5-.3-3-.7-4.4v-.2l4-3c-.4-1-.8-2-1.4-2.7l-4.8 1.6c0-.2 0-.2-.2-.3-1-1.3-2.2-2.4-3.5-3.2h-.2l1-5.2c-.8-.5-1.7-1-2.7-1.2l-2.8 4.5h-.2l-3-.3H750l-.2.2-2.4-4.6c-1 .2-2 .5-3 1l.8 5h-.2c-1.4 1-2.7 2-3.8 3v.3l-5-2-1.5 2.7 3.8 3.4v.3c-.7 1.5-1 3-1 4.7v.3l-5 1.5c0 1 .2 2 .4 3l5.2.2v.2c.5 1.6 1.2 3 2.2 4.3v.2l-2.6 4.3c.7.8 1.4 1.5 2.2 2l4-3h.3c1.4.8 3 1.5 4.5 1.8h.3l.7 5.2h3l1-5h.3c1.6-.2 3.2-.7 4.6-1.5h.2l3.8 3.4c1-.6 1.7-1.3 2.4-2l-2.5-4.5s.2 0 .2-.2c1-1.2 2-2.6 2.6-4 0 0 0-.2.2-.3l5 .2c.4-1 .6-2 .8-3l-4.8-2zm-14.6 10.4c-6 0-10.7-4.8-10.7-10.8 0-6 4.7-10.8 10.6-10.8s10.8 4.8 10.8 10.7c0 6-4.8 10.7-10.8 10.7z" class="gear-green"><animateTransform attributeType="xml" attributeName="transform" type="rotate" from="0 752.018 227.125" to="360 752.018 227.125" dur="6s" repeatCount="indefinite"/></path><path d="M649 120v-.2-.4c0-1.6-.2-3.2-.7-4.7v-.2l4.4-3.5c-.5-1-1-2-1.6-2.8L646 110c0-.2 0-.2-.2-.3-1-1.4-2.3-2.5-3.8-3.5h-.2l1.2-5.6c-1-.5-2-1-3-1.2l-3 4.8h-.2c-1-.3-2-.4-3.2-.4h-2s-.2 0-.3.2l-2.5-5-3 1 .7 5.5-.2.2c-1.5.8-3 2-4 3 0 .2-.2.3-.3.3l-5-2c-.8.8-1.4 1.7-2 2.7l4.3 3.7v.2c-.7 1.6-1 3.3-1.2 5v.3l-5.3 1.6c0 1 .2 2.2.4 3.3h5.5v.3c.7 1.7 1.5 3.2 2.5 4.6h.2l-3 4.8c.7.8 1.5 1.5 2.4 2.2l4.4-3.5s.2 0 .2.2c1.5 1 3 1.5 4.8 2h.3l.7 5.5 2.4.2h1l1-5.5c0-.2.2-.2.3-.2 1.7-.2 3.4-.8 5-1.6l4.3 3.7 2.5-2-2.6-5v-.3c1.2-1.2 2-2.7 2.8-4.3v-.3l5.7.4c.3-1 .6-2 .7-3.2l-5.2-2zm-15.7 11.3c-6.4 0-11.6-5.2-11.6-11.6 0-6.4 5.2-11.6 11.6-11.6s11.6 5.3 11.6 11.7c0 6.4-5.3 11.6-11.7 11.6z" class="gear-white"><animateTransform attributeType="xml" attributeName="transform" type="rotate" from="0 633.013 119.794" to="360 633.013 119.794" dur="6s" repeatCount="indefinite"/></path><path d="M627.8 232v-.4-.5c0-1.7-.2-3.5-.7-5.2v-.3l5-4c-.5-1-1-2.2-1.7-3.2l-6 2c-.2 0-.2-.2-.3-.2-1.2-1.5-2.7-2.8-4.4-4h-.2l1.4-6.3c-1.2-.6-2.3-1-3.5-1.4l-3.4 5.4h-.4c-1-.3-2.3-.4-3.6-.4h-2.3c0 .2-.2.2-.3.2l-3-5.7c-1.2.3-2.4.7-3.5 1.2l.8 6.3h-.3c-1.7 1-3.3 2.3-4.6 3.8-.2 0-.3.2-.3.3l-6-2.4c-.7.8-1.3 2-2 3l4.8 4.3v.3c-.8 1.8-1.2 3.7-1.3 5.7v.3l-6 2c0 1.2 0 2.5.4 3.7l6.4.2v.3c.7 2 1.7 3.6 3 5.2v.2l-3.4 5.4c1 1 1.8 1.8 2.8 2.5l5-3.8h.3c1.6 1.2 3.5 2 5.4 2.4h.4l1 6.4h3.6l1.3-6.2h.3c2-.3 4-1 5.6-1.8 0 0 .2 0 .3-.2l4.7 4.4 3-2.3-3-5.8.2-.2c1.3-1.5 2.3-3.2 3-5l.2-.3 6.4.3c.4-1.2.6-2.4.8-3.7l-6-2.4zM610 244.6c-7.4 0-13.3-6-13.3-13.2 0-7.4 6-13.3 13.3-13.3 7.3 0 13.2 6 13.2 13.3 0 7.3-6 13.2-13.3 13.2z" class="gear-green"><animateTransform attributeType="xml" attributeName="transform" type="rotate" from="0 609.991 231.017" to="360 609.991 231.017" dur="6s" repeatCount="indefinite"/></path><path d="M742 274v-.4-.7c0-2.6-.2-5-1-7v-.5l6.6-5.2c-.6-1.5-1.4-3-2.3-4.3l-8 2.6s0-.2-.2-.3c-1.5-2-3.5-3.8-5.7-5.2h-.3l1.8-8.3-4.6-2-4.4 7.3h-.4c-1.5-.4-3-.6-4.7-.6-1 0-2 0-3 .2h-.4l-4-7.4-4.6 1.5 1.2 8.4-.5.2c-2.3 1.3-4.3 3-6 4.8-.2 0-.3.2-.3.3l-7.8-3.2c-1 1.4-2 2.8-2.6 4.3l6.2 5.6v.2c-1 2.4-1.6 5-1.7 7.6v.4l-8 2.6c0 1.6.3 3.3.6 4.8l8.3.3v.3c1 2.5 2.2 4.8 3.8 6.8 0 .2.2.3.3.4l-4.5 7c1 1.3 2.3 2.4 3.6 3.4l6.6-5h.4c2.2 1.4 4.6 2.4 7.2 3h.4l1 8.4 3.7.2h1.3l1.7-8.3h.4c2.7-.3 5.2-1 7.5-2.3 0 0 .2 0 .3-.2l6.3 5.7 4-3-4-7.4s0-.2.2-.3c1.7-2 3-4.2 4-6.6l.3-.5 8.4.4 1-5-8-3zm-23.4 16.8c-9.6 0-17.5-8-17.5-17.5s8-17.4 17.6-17.4c9.6 0 17.4 7.7 17.4 17.3s-7.8 17.5-17.4 17.5z" class="gear-orange"><animateTransform attributeType="xml" attributeName="transform" type="rotate" from="0 718.62 272.847" to="360 718.62 272.847" dur="6s" repeatCount="indefinite"/></path><path d="M679.5 284.6v-.5-.8c0-3-.5-6-1.3-9l-.2-.4 8.5-6.5c-1-2-1.8-3.8-3-5.5l-10 3.3c-.2 0-.3 0-.4-.3-2-2.6-4.5-4.8-7.2-6.6-.2 0-.3 0-.5-.2l2.3-10.4c-1.8-1-3.8-1.7-5.8-2.4l-5.6 9h-.5c-2-.4-4-.6-6-.6-1.3 0-2.6 0-4 .3h-.4l-5-9.4c-2 .4-4 1-6 2l1.7 10.5c-.2 0-.3 0-.5.2-3 1.6-5.5 3.6-7.8 6 0 .2-.2.3-.3.4l-10-4c-1 1.6-2.2 3.4-3.2 5.3l8 7-.2.5c-1.2 3-2 6.3-2 9.7v.4l-10.3 3.2c0 2 .4 4.2 1 6.2l10.5.4s0 .3.2.4c1 3.2 2.6 6 4.6 8.7 0 .2.2.3.3.4l-5.7 9c1.4 1.6 3 3 4.6 4.3l8.4-6.6c.2 0 .3 0 .5.2 2.8 1.7 6 3 9.2 3.7h.5L645 323l4.7.3h1.7l2-10.5h.6c3.4-.6 6.5-1.6 9.4-3 .2-.2.3-.3.5-.3l7.8 7.2c1.7-1.2 3.4-2.5 5-4l-5.2-9.3c.2 0 .3-.2.4-.4 2.2-2.4 4-5.2 5.2-8.3l.2-.5 10.7.5c.7-2 1-4 1.4-6l-10-4zm-30 21.3c-12.2 0-22-10-22-22.2s9.8-22.2 22-22.2c12.3 0 22.2 10 22.2 22.2s-10 22-22 22z" class="gear-orange"><animateTransform attributeType="xml" attributeName="transform" type="rotate" from="0 649.551 283.224" to="360 649.551 283.224" dur="6s" repeatCount="indefinite"/></path><path d="M526 180.2v-.3-.7c0-2.2-.3-4.4-1-6.4v-.4l6-4.7c-.6-1.5-1.3-2.8-2-4l-7.3 2.3-.3-.3c-1.4-1.8-3.2-3.4-5.2-4.7 0 0-.2 0-.3-.2l1.5-7.4c-1.3-.6-2.7-1.2-4-1.6l-4 6.5h-.5c-1.4-.4-2.8-.5-4.3-.5H502l-.4.2-3.5-6.8c-1.4.3-2.8.8-4.2 1.4l1 7.5s0 .2-.2.2c-2 1-4 2.6-5.6 4.3 0 0 0 .2-.2.3l-7-2.8c-1 1.2-1.8 2.5-2.5 3.8l5.7 5v.4c-1 2.2-1.5 4.5-1.6 7v.3L476 181l.7 4.4 7.7.3v.3c.8 2.3 2 4.4 3.4 6.2 0 0 0 .2.2.3l-4 6.5 3.2 3 6-4.7s.2 0 .3.2c2 1.2 4.2 2 6.6 2.6l.4.2 1 7.6 3.3.2h1.2l1.5-7.6h.3c2.4-.4 4.7-1 6.7-2.2h.4l5.5 5c1.3-.8 2.4-1.7 3.5-2.7l-3.6-6.8.3-.2c1.5-1.8 2.8-3.8 3.7-6l.2-.4 7.6.5 1-4.4-7.2-2.8zm-21.4 15.3c-8.7 0-15.8-7-15.8-15.8s7-16 15.8-16 16 7.2 16 16-7.2 15.8-16 15.8z" class="gear-white"><animateTransform attributeType="xml" attributeName="transform" type="rotate" from="0 504.28 179.783" to="-360 504.28 179.783" dur="6s" repeatCount="indefinite"/></path><path d="M717.3 326v-.4-.5c0-2-.3-4-1-5.8v-.3l5.6-4.5-2-3.6-6.7 2s-.2 0-.3-.2c-1.3-1.7-3-3.2-4.8-4.3l-.3-.2 1.5-7-4-1.5-3.6 6h-.4c-1.3-.3-2.6-.4-4-.4H695l-.3.2-3.3-6.3c-1.3.3-2.6.8-4 1.3l1 7h-.2c-2 1.2-3.6 2.5-5 4l-.3.4-6.7-2.7c-.8 1-1.5 2.3-2.2 3.5l5.4 4.7v.3c-1 2-1.4 4-1.5 6.4v.3l-6.8 2.2c0 1.4.2 2.7.5 4l7 .3s0 .2.2.3c.6 2 1.6 4 3 5.8v.3l-3.6 6 3 2.8 5.6-4.3s.2 0 .3.2c1.8 1 3.8 1.8 6 2.3h.3l1 7 3 .3h1l1.5-7h.5c2.2-.3 4.3-1 6.2-2 0 0 .2 0 .3-.2l5.2 4.8 3.3-2.5-3.4-6.3c.2 0 .3 0 .3-.2 1.5-1.7 2.7-3.5 3.5-5.5v-.4l7.2.3 1-4-6.7-2.6zm-19.8 14c-8 0-14.6-6.5-14.6-14.6 0-8 6.4-14.6 14.5-14.6s14.7 6.5 14.7 14.6c0 8-6.6 14.7-14.7 14.7z" class="gear-white"><animateTransform attributeType="xml" attributeName="transform" type="rotate" from="0 697.218 325.702" to="-360 697.218 325.702" dur="6s" repeatCount="indefinite"/></path><path d="M530.4 135.5v-.2-.3c0-1 0-2.2-.5-3.2v-.2l3-2.4-1-2-3.8 1.3v-.2c-.8-1-1.7-1.7-2.7-2.4l-.2-.2.8-3.7-2-.8-2 3.3h-.2c-.6-.2-1.4-.2-2-.2h-1.5-.2l-1.7-3.3c-.7 0-1.4.4-2 .6l.4 4c-1.2.5-2 1.2-3 2v.3l-3.6-1.6-1 2 2.8 2.5c-.5 1-.8 2.3-.8 3.5v.2l-3.7 1c0 1 0 1.7.3 2.4l3.8.2v.2c.5 1 1 2.2 1.8 3v.3l-2 3.2c.5.4 1 1 1.7 1.4l3-2.4c1 .7 2.2 1.2 3.3 1.5h.2l.5 3.8h2.3l.8-3.7h.3c1.2-.2 2.3-.5 3.3-1l.2-.2 2.8 2.6c.7-.4 1.3-.8 1.8-1.3l-1.8-3.4v-.2c1-.8 1.5-1.8 2-3h4c0-.6.3-1.3.4-2l-3.6-1.5zm-10.8 7.7c-4.4 0-8-3.6-8-8s3.6-8 8-8 8 3.6 8 8-3.6 8-8 8z" class="gear-green"><animateTransform attributeType="xml" attributeName="transform" type="rotate" from="0 519.521 135.034" to="360 519.521 135.034" dur="6s" repeatCount="indefinite"/></path></g>
</symbol>
</defs>
</svg>
